<?xml version="1.0" encoding="UTF-8"?><svg id="uuid-3feb8898-29fc-4b8e-a132-e7a884148cea" xmlns="http://www.w3.org/2000/svg" xmlns:xlink="http://www.w3.org/1999/xlink" viewBox="0 0 166.32 191.09"><defs><linearGradient id="uuid-c1553bc6-d4d4-4b69-84fb-7d57e2a16bd7" x1="0" y1="95.55" x2="166.32" y2="95.55" gradientUnits="userSpaceOnUse"><stop offset="0" stop-color="#00bc7d"/><stop offset=".25" stop-color="#00bd7f"/><stop offset=".39" stop-color="#00c287"/><stop offset=".5" stop-color="#00ca95"/><stop offset="1" stop-color="#7de9be"/></linearGradient></defs><path d="M136.53,148.65c10.28-16.87,14.27-21.7,15.85-42.79h-31.89c-.23,2.06-.64,4.1-1.51,6.84-1.1,3.44-2.54,6.22-3.81,8.27l-25.03-32.41c20.29-10.54,33.73-22.15,33.73-45.33,0-10.8-3.64-20.13-9.96-27.32C105.13,5.89,91.15,0,74.59,0c-10.28,0-19.34,2.35-26.79,6.44-13.76,7.56-21.98,21.14-21.98,37.05s5.01,25.83,15.82,39.01C17.12,94.89,0,111.75,0,138.63c0,22.78,12.71,41.64,37.54,49.06,7.35,2.2,15.74,3.4,25.19,3.4,8.38,0,16.41-1.19,23.96-3.4,9.54-2.79,18.32-7.21,26.12-12.95l9.76,12.39h43.75l-29.78-38.48h0ZM75.12,28.73c7.9,0,14.76,5.8,14.76,15.02s-3.42,17.13-15.81,24.51c-7.91-7.64-13.71-15.81-13.71-24.25,0-8.96,6.33-15.28,14.76-15.28h0ZM64.05,161.56c-.93,0-1.85-.04-2.75-.12-5.13-.43-9.74-2.08-13.49-4.69-6.06-4.21-9.85-10.94-9.85-19.17s2.71-15.96,9.85-23.14c3.06-3.09,6.94-6.09,11.76-9.01l14.93,19.49,19.59,25.58c-8.43,7.12-18.71,11.07-30.04,11.07h0Z" style="fill:url(#uuid-c1553bc6-d4d4-4b69-84fb-7d57e2a16bd7);"/></svg>