<?xml version="1.0" encoding="UTF-8"?>
<svg id="Livello_1" xmlns="http://www.w3.org/2000/svg" version="1.1" viewBox="0 0 666.5 84.5">
  <!-- Generator: Adobe Illustrator 29.3.1, SVG Export Plug-In . SVG Version: 2.1.0 Build 151)  -->
  <defs>
    <style>
      .st0 {
        fill: #1d1d1b;
      }

      .st1 {
        fill: #009d62;
      }
    </style>
  </defs>
  <path class="st0" d="M37.2,64.1h-14.5L0,4.1h16.3l13.9,42.6h.3L44.4,4.1h16l-23.2,60.1h0Z"/>
  <path class="st0" d="M60.4,27.6c2.5-2.4,5.4-4.2,8.7-5.3,3.3-1.2,6.7-1.8,10.1-1.8s6.6.4,9,1.3c2.5.9,4.4,2.2,6,4.1,1.5,1.8,2.6,4.2,3.3,6.9.7,2.8,1.1,6.1,1.1,10v21.3h-12.7v-4.5h-.2c-1.1,1.8-2.7,3.1-4.9,4.1s-4.5,1.4-7.1,1.4-3.4-.2-5.3-.7c-1.8-.5-3.5-1.2-5-2.2s-2.7-2.4-3.7-4.1-1.4-3.8-1.4-6.3.8-5.5,2.5-7.4,3.8-3.3,6.4-4.3c2.6-1,5.6-1.7,8.8-2,3.2-.3,6.4-.5,9.4-.5v-.7c0-2.1-.7-3.6-2.2-4.6-1.5-1-3.3-1.5-5.4-1.5s-3.9.4-5.7,1.3c-1.8.8-3.4,1.9-4.7,3l-7-7.5h0ZM85.9,45.7h-1.8c-1.5,0-3.1,0-4.6.2-1.6.1-2.9.4-4.2.8-1.2.4-2.2,1-3,1.7-.8.8-1.2,1.8-1.2,3s.2,1.5.6,2,.8,1,1.4,1.4c.6.3,1.2.6,1.9.7.7.1,1.4.2,2.1.2,2.8,0,5-.8,6.5-2.3s2.2-3.7,2.2-6.3v-1.4h0Z"/>
  <path class="st0" d="M153.8,60.1c0,4.1-.6,7.7-1.8,10.8s-2.9,5.6-5,7.6c-2.1,2-4.8,3.5-7.9,4.5-3.1,1-6.5,1.5-10.2,1.5s-7.6-.6-11.5-1.7-7.3-2.8-10.2-4.9l6.9-9.9c2,1.8,4.3,3.2,6.7,4s4.9,1.3,7.2,1.3c4.1,0,7.1-1.1,9-3.2s2.9-5,2.9-8.6v-2.5h-.2c-1.3,1.7-3.1,3-5.3,4.1-2.2,1-4.7,1.5-7.6,1.5s-6.1-.6-8.6-1.7-4.6-2.7-6.3-4.7c-1.7-2-3-4.3-3.9-6.9s-1.4-5.4-1.4-8.3.4-5.7,1.4-8.4c.9-2.7,2.2-5,3.9-7s3.8-3.7,6.3-4.9c2.5-1.2,5.3-1.8,8.5-1.8s5.2.5,7.6,1.6c2.4,1.1,4.4,2.7,5.9,5h.2v-5.4h13.1v38.2h0ZM140.5,42.8c0-1.4-.2-2.8-.7-4.1s-1.2-2.4-2.1-3.4-2-1.8-3.2-2.3-2.7-.8-4.2-.8-3,.3-4.2.8c-1.2.6-2.2,1.3-3.1,2.3s-1.5,2.1-1.9,3.4-.7,2.7-.7,4.2.2,2.8.7,4.1c.4,1.3,1.1,2.5,1.9,3.4.8,1,1.9,1.8,3.1,2.4s2.6.9,4.2.9,3-.3,4.3-.9,2.4-1.4,3.2-2.3c.9-1,1.6-2.1,2-3.4.5-1.3.7-2.7.7-4.2h0Z"/>
  <path class="st0" d="M165,64.1V0h14.2v64.1h-14.2Z"/>
  <path class="st0" d="M205.2,8.4c0,1.1-.2,2.1-.6,3-.4.9-1,1.7-1.7,2.4-.7.7-1.6,1.2-2.5,1.6-1,.4-2,.6-3.1.6-2.3,0-4.2-.8-5.7-2.2-1.5-1.5-2.3-3.3-2.3-5.4s.2-2,.6-2.9c.4-.9,1-1.7,1.7-2.4.7-.7,1.6-1.2,2.5-1.6,1-.4,2-.6,3.1-.6s2.1.2,3.1.6c1,.4,1.8.9,2.5,1.6.7.7,1.3,1.5,1.7,2.4.4.9.6,1.9.6,3h0ZM190.2,64.1V21.9h13.9v42.2h-13.9Z"/>
  <path class="st0" d="M260,42.8c0,3.5-.6,6.6-1.9,9.4-1.2,2.8-2.9,5.2-5.1,7.1-2.1,2-4.6,3.5-7.5,4.5-2.8,1.1-5.9,1.6-9.1,1.6s-6.2-.5-9-1.6c-2.9-1.1-5.3-2.6-7.5-4.5-2.1-2-3.8-4.3-5.1-7.1-1.2-2.8-1.9-5.9-1.9-9.4s.6-6.6,1.9-9.3c1.2-2.8,2.9-5.1,5.1-7,2.1-1.9,4.6-3.4,7.5-4.4s5.9-1.5,9-1.5,6.2.5,9.1,1.5,5.3,2.5,7.5,4.4c2.1,1.9,3.8,4.3,5.1,7,1.2,2.8,1.9,5.9,1.9,9.3ZM246.6,42.8c0-1.4-.2-2.7-.7-4-.4-1.3-1.1-2.4-1.9-3.4-.9-1-1.9-1.8-3.1-2.4-1.2-.6-2.7-.9-4.3-.9s-3.1.3-4.3.9c-1.2.6-2.3,1.4-3.1,2.4-.8,1-1.4,2.1-1.9,3.4-.4,1.3-.6,2.6-.6,4s.2,2.7.6,4c.4,1.3,1.1,2.5,1.9,3.5s1.9,1.9,3.1,2.5c1.2.6,2.7.9,4.3.9s3.1-.3,4.3-.9c1.2-.6,2.3-1.5,3.1-2.5.9-1,1.5-2.2,1.9-3.5.4-1.3.6-2.6.6-4h0Z"/>
  <path class="st1" d="M311.9,64.1l-5.7-5.8c-1.9,2-4.3,3.7-7.1,5s-6.3,2-10.5,2-5.4-.3-8-1.1-4.9-1.8-6.9-3.3c-2-1.5-3.6-3.4-4.8-5.6-1.2-2.2-1.8-4.9-1.8-7.9s.3-4,1-5.8c.7-1.8,1.6-3.3,2.8-4.7,1.2-1.4,2.5-2.5,4-3.6s3.1-1.9,4.8-2.6c-1.9-1.8-3.4-3.8-4.5-5.9-1.1-2.1-1.7-4.5-1.7-7.1s.6-5,1.7-6.9c1.1-1.9,2.6-3.5,4.4-4.8s3.8-2.2,6-2.7c2.2-.6,4.5-.8,6.7-.8s4.5.3,6.7.9c2.2.6,4.2,1.5,5.9,2.8,1.7,1.2,3.1,2.8,4.2,4.8,1,1.9,1.6,4.2,1.6,6.9s-.3,3.7-.9,5.2-1.5,3-2.6,4.2c-1.1,1.3-2.4,2.4-3.9,3.4-1.5,1-3,2-4.7,2.8l7.5,7.7,6-9.2h15.4l-13,17.4,14.9,14.8h-17.6ZM287.4,38.8c-1.7.7-3.2,1.6-4.5,2.8-1.3,1.2-1.9,3-1.9,5.2s.2,2.2.7,3.2,1.1,1.7,1.9,2.4c.8.7,1.6,1.2,2.6,1.5,1,.3,2,.5,3,.5,1.9,0,3.5-.4,5-1.2,1.5-.8,2.7-1.9,3.8-3.4l-10.6-11h0ZM298.1,18.1c0-1.5-.5-2.8-1.5-3.9s-2.4-1.6-4.2-1.6-3,.5-4.1,1.6c-1.1,1.1-1.6,2.4-1.6,3.9s.4,2.8,1.1,4.1,1.9,2.5,3.4,3.7c1.9-.8,3.6-1.8,4.9-3.1,1.4-1.3,2-2.9,2-4.7h0Z"/>
  <path class="st0" d="M381.3,22.6c0,3.5-.6,6.5-2,8.9-1.3,2.4-3,4.3-5.3,5.8-2.2,1.5-4.8,2.5-7.6,3.2s-5.9,1-9,1h-7.2v22.7h-14.5V4.1h22c3.3,0,6.4.3,9.2,1,2.9.7,5.3,1.7,7.5,3.1s3.8,3.3,5,5.7c1.2,2.4,1.8,5.2,1.8,8.7h0ZM366.8,22.6c0-1.4-.3-2.6-.9-3.5-.6-.9-1.3-1.6-2.3-2.1-1-.5-2-.9-3.3-1s-2.5-.2-3.8-.2h-6.4v14.2h6.1c1.4,0,2.7-.1,3.9-.3,1.2-.2,2.4-.6,3.4-1.2,1-.6,1.8-1.3,2.3-2.2.6-.9.9-2.1.9-3.5h0Z"/>
  <path class="st0" d="M384.7,27.6c2.5-2.4,5.4-4.2,8.7-5.3,3.3-1.2,6.7-1.8,10.1-1.8s6.6.4,9,1.3c2.5.9,4.5,2.2,6,4.1s2.6,4.2,3.4,6.9c.7,2.8,1.1,6.1,1.1,10v21.3h-12.7v-4.5h-.2c-1.1,1.8-2.7,3.1-4.9,4.1s-4.5,1.4-7.1,1.4-3.5-.2-5.3-.7c-1.8-.5-3.5-1.2-5-2.2s-2.7-2.4-3.7-4.1-1.4-3.8-1.4-6.3.8-5.5,2.5-7.4,3.8-3.3,6.5-4.3c2.6-1,5.5-1.7,8.8-2,3.2-.3,6.4-.5,9.4-.5v-.7c0-2.1-.7-3.6-2.2-4.6-1.5-1-3.3-1.5-5.4-1.5s-3.9.4-5.7,1.3c-1.8.8-3.4,1.9-4.7,3l-7-7.5h0ZM410.2,45.7h-1.8c-1.5,0-3.1,0-4.6.2-1.6.1-2.9.4-4.2.8s-2.2,1-3,1.7c-.8.8-1.2,1.8-1.2,3s.2,1.5.5,2,.8,1,1.4,1.4c.6.3,1.2.6,2,.7s1.4.2,2.1.2c2.8,0,5-.8,6.5-2.3s2.2-3.7,2.2-6.3v-1.4h0Z"/>
  <path class="st0" d="M460.7,33.3c-.6-.2-1.2-.3-1.8-.3s-1.2,0-1.7,0c-1.9,0-3.4.3-4.7,1-1.3.7-2.3,1.5-3,2.5-.8,1-1.3,2-1.6,3.1s-.5,2.1-.5,3v21.7h-13.9V21.9h13.4v6.1h.2c1.1-2.2,2.6-3.9,4.6-5.3,2-1.4,4.3-2,6.9-2s1.1,0,1.6,0c.5,0,1,.1,1.3.2l-.6,12.3Z"/>
  <path class="st0" d="M483.7,32.2v16.2c0,2,.4,3.5,1.1,4.5s2.1,1.5,4.1,1.5,1.4,0,2.2-.2c.8-.1,1.4-.3,1.9-.5l.2,10.2c-1,.3-2.2.6-3.6.9s-2.9.4-4.4.4c-2.8,0-5.2-.4-7.1-1.1-1.9-.7-3.5-1.7-4.6-3.1s-2-2.9-2.5-4.8c-.5-1.8-.8-3.9-.8-6.2v-17.9h-6.8v-10.4h6.7v-11.1h13.7v11.1h9.9v10.4h-9.9Z"/>
  <path class="st0" d="M525.3,64.1v-23.1c0-1.2,0-2.3-.3-3.4s-.5-2-1-2.8c-.5-.8-1.1-1.5-1.9-2-.8-.5-1.8-.7-3.1-.7s-2.3.2-3.3.7c-.9.5-1.7,1.1-2.3,2-.6.8-1.1,1.8-1.4,2.9-.3,1.1-.5,2.2-.5,3.4v22.9h-14V21.9h13.5v5.9h.2c.5-.9,1.2-1.8,2-2.7s1.8-1.6,2.9-2.2c1.1-.6,2.3-1.1,3.6-1.5,1.3-.4,2.7-.6,4.2-.6,2.8,0,5.2.5,7.2,1.5,2,1,3.6,2.3,4.8,3.9,1.2,1.6,2.1,3.5,2.6,5.5s.8,4.2.8,6.3v26.1h-14Z"/>
  <path class="st0" d="M591.7,43.5v1.7c0,.6,0,1.1,0,1.6h-30.6c.1,1.2.5,2.3,1.1,3.2.6,1,1.4,1.8,2.3,2.5.9.7,2,1.3,3.1,1.7,1.2.4,2.4.6,3.6.6,2.2,0,4.1-.4,5.6-1.2,1.5-.8,2.8-1.9,3.7-3.2l9.7,6.1c-2,2.9-4.6,5.1-7.8,6.7-3.2,1.5-7,2.3-11.3,2.3s-6.2-.5-9-1.5c-2.8-1-5.3-2.4-7.4-4.3-2.1-1.9-3.8-4.2-5-7-1.2-2.8-1.8-5.9-1.8-9.5s.6-6.6,1.8-9.4,2.8-5.2,4.8-7.1c2-2,4.4-3.5,7.2-4.5,2.8-1.1,5.8-1.6,9-1.6s6,.5,8.6,1.6c2.6,1,4.8,2.6,6.7,4.5,1.9,2,3.3,4.4,4.4,7.2,1,2.8,1.6,6,1.6,9.7h0ZM578.9,38.2c0-2.2-.7-4.1-2.1-5.7-1.4-1.6-3.5-2.4-6.2-2.4s-2.6.2-3.7.6c-1.1.4-2.1,1-3,1.7s-1.5,1.6-2,2.6c-.5,1-.8,2-.8,3.1h17.9,0Z"/>
  <path class="st0" d="M627.8,33.3c-.6-.2-1.2-.3-1.8-.3s-1.2,0-1.7,0c-1.9,0-3.4.3-4.7,1-1.3.7-2.3,1.5-3,2.5s-1.3,2-1.7,3.1-.5,2.1-.5,3v21.7h-13.9V21.9h13.4v6.1h.2c1.1-2.2,2.6-3.9,4.6-5.3,2-1.4,4.3-2,6.9-2s1.1,0,1.7,0c.5,0,1,.1,1.3.2l-.6,12.3Z"/>
  <path class="st0" d="M658.8,34.3c-1.1-1.1-2.5-2-4-2.7-1.5-.7-3.1-1.1-4.8-1.1s-2.5.2-3.6.8-1.7,1.4-1.7,2.6.6,2,1.8,2.5c1.2.5,3.2,1.1,5.9,1.7,1.6.3,3.2.8,4.8,1.4s3.1,1.4,4.4,2.5,2.3,2.3,3.1,3.7c.8,1.5,1.2,3.2,1.2,5.3s-.5,4.9-1.6,6.7c-1.1,1.8-2.5,3.3-4.2,4.5-1.7,1.1-3.7,2-5.8,2.5s-4.3.8-6.5.8c-3.5,0-6.8-.6-10.1-1.7-3.3-1.1-6.1-2.7-8.3-4.9l7.8-8.2c1.2,1.4,2.8,2.5,4.6,3.4,1.8.9,3.7,1.4,5.8,1.4s2.2-.3,3.3-.8,1.7-1.5,1.7-2.8-.7-2.3-2-2.9c-1.4-.6-3.5-1.3-6.4-2-1.5-.3-2.9-.8-4.4-1.4-1.5-.6-2.8-1.3-3.9-2.3-1.2-1-2.1-2.2-2.8-3.6-.7-1.4-1.1-3.1-1.1-5.1s.5-4.7,1.6-6.5,2.5-3.2,4.2-4.4c1.7-1.1,3.6-2,5.6-2.5s4.1-.8,6.2-.8c3.2,0,6.3.5,9.3,1.5,3,1,5.6,2.5,7.7,4.4l-7.6,7.9h0Z"/>
</svg>