<?xml version="1.0" encoding="UTF-8"?>
<svg id="Livello_1" xmlns="http://www.w3.org/2000/svg" viewBox="0 0 666.46 84.47">
  <defs>
    <style>
      .cls-1 {
        fill: #103653;
      }

      .cls-2 {
        fill: #009d62;
      }
    </style>
  </defs>
  <path class="cls-1" d="M37.23,64.12h-14.5L0,4.07h16.28l13.91,42.58h.34L44.36,4.07h16.03l-23.15,60.05Z"/>
  <path class="cls-1" d="M60.39,27.65c2.49-2.37,5.39-4.16,8.69-5.34,3.31-1.19,6.69-1.78,10.13-1.78s6.57.44,9.03,1.31c2.46.88,4.45,2.23,5.98,4.07,1.53,1.84,2.64,4.16,3.35,6.95.71,2.8,1.06,6.12,1.06,9.97v21.29h-12.72v-4.5h-.25c-1.08,1.75-2.7,3.11-4.88,4.07-2.18.96-4.54,1.44-7.08,1.44-1.7,0-3.45-.23-5.26-.68-1.81-.45-3.46-1.19-4.96-2.21-1.5-1.02-2.73-2.37-3.69-4.07-.96-1.7-1.44-3.79-1.44-6.28,0-3.05.83-5.51,2.5-7.38,1.67-1.87,3.82-3.31,6.45-4.33,2.63-1.02,5.55-1.7,8.78-2.04,3.22-.34,6.36-.51,9.41-.51v-.68c0-2.09-.74-3.63-2.21-4.62-1.47-.99-3.28-1.48-5.43-1.48-1.98,0-3.89.42-5.72,1.27-1.84.85-3.41,1.87-4.71,3.05l-7.04-7.55ZM85.92,45.71h-1.78c-1.53,0-3.07.07-4.62.21-1.56.14-2.94.41-4.16.81-1.22.4-2.22.97-3.01,1.74-.79.76-1.19,1.77-1.19,3.01,0,.79.18,1.47.55,2.04.37.57.83,1.02,1.4,1.36.56.34,1.22.58,1.95.72.73.14,1.44.21,2.12.21,2.83,0,4.99-.78,6.49-2.33,1.5-1.55,2.25-3.66,2.25-6.32v-1.44Z"/>
  <path class="cls-1" d="M153.77,60.13c0,4.13-.59,7.72-1.78,10.77-1.19,3.05-2.86,5.58-5,7.59-2.15,2.01-4.76,3.5-7.85,4.5-3.08.99-6.49,1.48-10.22,1.48s-7.56-.57-11.49-1.7c-3.93-1.13-7.34-2.77-10.22-4.92l6.95-9.92c2.04,1.81,4.28,3.15,6.74,4.03,2.46.88,4.88,1.31,7.25,1.31,4.07,0,7.08-1.07,9.03-3.22,1.95-2.15,2.93-5,2.93-8.57v-2.54h-.25c-1.3,1.7-3.05,3.05-5.26,4.07-2.21,1.02-4.72,1.53-7.55,1.53-3.22,0-6.08-.58-8.57-1.74-2.49-1.16-4.59-2.73-6.32-4.71-1.73-1.98-3.04-4.28-3.94-6.91-.9-2.63-1.36-5.41-1.36-8.35s.45-5.74,1.36-8.4c.9-2.66,2.22-5,3.94-7.04,1.72-2.04,3.83-3.66,6.32-4.88,2.49-1.22,5.31-1.82,8.48-1.82,2.66,0,5.2.54,7.63,1.61,2.43,1.07,4.38,2.74,5.85,5h.17v-5.43h13.15v38.25ZM140.54,42.75c0-1.41-.24-2.77-.72-4.07-.48-1.3-1.17-2.44-2.08-3.43-.91-.99-1.98-1.77-3.22-2.33-1.24-.56-2.66-.85-4.24-.85s-2.98.28-4.2.85c-1.22.57-2.25,1.33-3.1,2.29-.85.96-1.5,2.09-1.95,3.39-.45,1.3-.68,2.69-.68,4.16s.22,2.77.68,4.07c.45,1.3,1.1,2.45,1.95,3.43.85.99,1.88,1.78,3.1,2.37,1.22.59,2.61.89,4.2.89s3.01-.3,4.28-.89c1.27-.59,2.35-1.37,3.22-2.33.88-.96,1.55-2.09,2.04-3.39.48-1.3.72-2.69.72-4.16Z"/>
  <path class="cls-1" d="M164.96,64.12V0h14.16v64.12h-14.16Z"/>
  <path class="cls-1" d="M205.16,8.4c0,1.07-.21,2.08-.64,3.01-.42.93-.99,1.74-1.7,2.42-.71.68-1.56,1.22-2.54,1.61-.99.4-2.02.59-3.1.59-2.26,0-4.16-.75-5.68-2.25-1.53-1.5-2.29-3.29-2.29-5.39,0-1.02.2-1.99.59-2.93.39-.93.96-1.74,1.7-2.42.73-.68,1.58-1.23,2.54-1.65.96-.42,2.01-.64,3.14-.64s2.11.2,3.1.59c.99.4,1.84.93,2.54,1.61.71.68,1.27,1.48,1.7,2.42.42.93.64,1.94.64,3.01ZM190.23,64.12V21.88h13.91v42.24h-13.91Z"/>
  <path class="cls-1" d="M259.95,42.83c0,3.45-.62,6.57-1.87,9.37-1.24,2.8-2.94,5.17-5.09,7.12-2.15,1.95-4.64,3.46-7.46,4.54-2.83,1.07-5.85,1.61-9.08,1.61s-6.18-.54-9.03-1.61c-2.86-1.07-5.34-2.59-7.46-4.54-2.12-1.95-3.8-4.33-5.05-7.12-1.24-2.8-1.87-5.92-1.87-9.37s.62-6.56,1.87-9.33c1.24-2.77,2.93-5.12,5.05-7.04,2.12-1.92,4.61-3.39,7.46-4.41,2.85-1.02,5.87-1.53,9.03-1.53s6.25.51,9.08,1.53c2.83,1.02,5.31,2.49,7.46,4.41,2.15,1.92,3.84,4.27,5.09,7.04,1.24,2.77,1.87,5.88,1.87,9.33ZM246.55,42.83c0-1.36-.23-2.68-.68-3.99-.45-1.3-1.1-2.44-1.95-3.43-.85-.99-1.9-1.79-3.14-2.42-1.24-.62-2.69-.93-4.33-.93s-3.08.31-4.33.93c-1.24.62-2.28,1.43-3.1,2.42-.82.99-1.44,2.14-1.87,3.43-.42,1.3-.64,2.63-.64,3.99s.21,2.69.64,3.99c.42,1.3,1.06,2.47,1.91,3.52.85,1.05,1.89,1.88,3.14,2.5,1.24.62,2.68.93,4.33.93s3.08-.31,4.33-.93c1.24-.62,2.29-1.46,3.14-2.5.85-1.05,1.48-2.22,1.91-3.52.42-1.3.64-2.63.64-3.99Z"/>
  <path class="cls-2" d="M311.94,64.12l-5.68-5.85c-1.92,2.04-4.28,3.72-7.08,5.05s-6.29,1.99-10.47,1.99c-2.71,0-5.37-.35-7.97-1.06-2.6-.71-4.91-1.81-6.91-3.31-2.01-1.5-3.62-3.36-4.83-5.6-1.22-2.23-1.82-4.88-1.82-7.93,0-2.09.34-4.01,1.02-5.77.68-1.75,1.6-3.31,2.76-4.66,1.16-1.36,2.5-2.54,4.03-3.56,1.53-1.02,3.11-1.89,4.75-2.63-1.87-1.81-3.36-3.79-4.5-5.94-1.13-2.15-1.7-4.52-1.7-7.12s.56-5.03,1.7-6.95c1.13-1.92,2.59-3.51,4.37-4.75,1.78-1.24,3.79-2.15,6.02-2.71,2.23-.56,4.45-.85,6.66-.85s4.5.3,6.7.89c2.21.59,4.17,1.51,5.89,2.76,1.72,1.24,3.11,2.83,4.16,4.75,1.05,1.92,1.57,4.21,1.57,6.87,0,1.92-.31,3.66-.93,5.22-.62,1.56-1.48,2.97-2.59,4.24-1.1,1.27-2.39,2.42-3.86,3.44-1.47,1.02-3.03,1.95-4.66,2.8l7.55,7.72,6.02-9.24h15.44l-12.98,17.39,14.93,14.84h-17.56ZM287.43,38.76c-1.7.68-3.18,1.63-4.45,2.84-1.27,1.22-1.91,2.96-1.91,5.22,0,1.19.24,2.25.72,3.18.48.93,1.1,1.73,1.87,2.37.76.65,1.62,1.15,2.59,1.48.96.34,1.95.51,2.97.51,1.87,0,3.53-.39,5-1.19,1.47-.79,2.74-1.92,3.82-3.39l-10.6-11.03ZM298.11,18.15c0-1.53-.51-2.83-1.53-3.9-1.02-1.07-2.4-1.61-4.16-1.61-1.64,0-3.01.52-4.11,1.57-1.1,1.05-1.65,2.36-1.65,3.94,0,1.41.38,2.77,1.14,4.07.76,1.3,1.88,2.54,3.35,3.73,1.92-.79,3.56-1.84,4.92-3.14,1.36-1.3,2.04-2.85,2.04-4.66Z"/>
  <path class="cls-1" d="M381.32,22.56c0,3.51-.65,6.46-1.95,8.86-1.3,2.4-3.05,4.34-5.26,5.81-2.21,1.47-4.75,2.54-7.63,3.22-2.88.68-5.88,1.02-8.99,1.02h-7.21v22.65h-14.5V4.07h22.05c3.28,0,6.35.33,9.2.97,2.85.65,5.34,1.7,7.46,3.14,2.12,1.44,3.79,3.34,5,5.68,1.22,2.35,1.82,5.25,1.82,8.69ZM366.81,22.64c0-1.41-.28-2.57-.85-3.48-.57-.9-1.33-1.61-2.29-2.12-.96-.51-2.05-.85-3.27-1.02-1.22-.17-2.47-.25-3.77-.25h-6.36v14.16h6.11c1.36,0,2.66-.11,3.9-.34,1.24-.22,2.36-.62,3.35-1.19.99-.56,1.77-1.31,2.33-2.25.56-.93.85-2.11.85-3.52Z"/>
  <path class="cls-1" d="M384.71,27.65c2.49-2.37,5.39-4.16,8.69-5.34,3.31-1.19,6.69-1.78,10.13-1.78s6.57.44,9.03,1.31c2.46.88,4.45,2.23,5.98,4.07,1.53,1.84,2.64,4.16,3.35,6.95.71,2.8,1.06,6.12,1.06,9.97v21.29h-12.72v-4.5h-.25c-1.08,1.75-2.7,3.11-4.88,4.07-2.18.96-4.54,1.44-7.08,1.44-1.7,0-3.45-.23-5.26-.68-1.81-.45-3.46-1.19-4.96-2.21-1.5-1.02-2.73-2.37-3.69-4.07-.96-1.7-1.44-3.79-1.44-6.28,0-3.05.83-5.51,2.5-7.38,1.67-1.87,3.82-3.31,6.45-4.33,2.63-1.02,5.55-1.7,8.78-2.04,3.22-.34,6.36-.51,9.41-.51v-.68c0-2.09-.74-3.63-2.21-4.62-1.47-.99-3.28-1.48-5.43-1.48-1.98,0-3.89.42-5.72,1.27-1.84.85-3.41,1.87-4.71,3.05l-7.04-7.55ZM410.24,45.71h-1.78c-1.53,0-3.07.07-4.62.21-1.56.14-2.94.41-4.16.81-1.22.4-2.22.97-3.01,1.74-.79.76-1.19,1.77-1.19,3.01,0,.79.18,1.47.55,2.04.37.57.83,1.02,1.4,1.36.56.34,1.22.58,1.95.72.73.14,1.44.21,2.12.21,2.83,0,4.99-.78,6.49-2.33,1.5-1.55,2.25-3.66,2.25-6.32v-1.44Z"/>
  <path class="cls-1" d="M460.7,33.33c-.62-.17-1.23-.28-1.82-.34-.59-.06-1.17-.08-1.74-.08-1.87,0-3.44.34-4.71,1.01-1.27.68-2.29,1.49-3.05,2.45-.76.96-1.31,2-1.65,3.13-.34,1.13-.51,2.11-.51,2.96v21.65h-13.91V21.93h13.4v6.11h.17c1.07-2.16,2.6-3.93,4.58-5.29,1.98-1.37,4.27-2.05,6.87-2.05.56,0,1.12.03,1.65.08.54.06.97.14,1.31.25l-.59,12.3Z"/>
  <path class="cls-1" d="M483.69,32.23v16.18c0,1.99.38,3.48,1.14,4.47.76.99,2.13,1.49,4.11,1.49.68,0,1.4-.06,2.16-.17.76-.11,1.4-.28,1.91-.51l.17,10.18c-.96.34-2.18.64-3.65.89-1.47.25-2.94.38-4.41.38-2.83,0-5.2-.36-7.12-1.06-1.92-.71-3.46-1.73-4.62-3.06-1.16-1.33-1.99-2.92-2.5-4.76-.51-1.84-.76-3.9-.76-6.16v-17.86h-6.79v-10.35h6.7v-11.11h13.66v11.11h9.92v10.35h-9.92Z"/>
  <path class="cls-1" d="M525.33,64.12v-23.07c0-1.19-.1-2.32-.3-3.39-.2-1.07-.52-2.02-.97-2.84-.45-.82-1.09-1.47-1.91-1.95-.82-.48-1.85-.72-3.1-.72s-2.33.24-3.27.72c-.93.48-1.71,1.14-2.33,1.99-.62.85-1.09,1.82-1.4,2.93-.31,1.1-.47,2.25-.47,3.43v22.9h-13.99V21.88h13.49v5.85h.17c.51-.9,1.17-1.79,1.99-2.67.82-.88,1.78-1.62,2.88-2.25,1.1-.62,2.3-1.13,3.6-1.53,1.3-.39,2.68-.59,4.16-.59,2.83,0,5.23.51,7.21,1.53,1.98,1.02,3.58,2.33,4.79,3.94,1.22,1.61,2.09,3.46,2.63,5.55.54,2.09.81,4.19.81,6.28v26.12h-13.99Z"/>
  <path class="cls-1" d="M591.74,43.51v1.7c0,.57-.03,1.1-.08,1.61h-30.62c.11,1.19.47,2.26,1.06,3.22.59.96,1.36,1.8,2.29,2.5.93.71,1.98,1.26,3.14,1.65,1.16.4,2.36.59,3.6.59,2.21,0,4.07-.41,5.6-1.23,1.53-.82,2.77-1.88,3.73-3.18l9.67,6.11c-1.98,2.88-4.59,5.1-7.85,6.66-3.25,1.55-7.03,2.33-11.32,2.33-3.17,0-6.16-.5-8.99-1.48-2.83-.99-5.3-2.43-7.42-4.33-2.12-1.89-3.79-4.23-5-7-1.22-2.77-1.82-5.94-1.82-9.5s.59-6.57,1.78-9.37c1.19-2.8,2.8-5.17,4.83-7.12,2.04-1.95,4.44-3.46,7.21-4.54,2.77-1.07,5.77-1.61,8.99-1.61s5.96.52,8.57,1.57c2.6,1.05,4.83,2.56,6.7,4.54,1.87,1.98,3.32,4.38,4.37,7.21,1.05,2.83,1.57,6.05,1.57,9.67ZM578.93,38.17c0-2.21-.69-4.1-2.08-5.68-1.39-1.58-3.46-2.37-6.23-2.37-1.36,0-2.6.21-3.73.64-1.13.42-2.12,1-2.97,1.74-.85.74-1.53,1.6-2.04,2.59-.51.99-.79,2.02-.85,3.1h17.9Z"/>
  <path class="cls-1" d="M627.78,33.33c-.62-.17-1.23-.28-1.82-.34-.59-.06-1.17-.08-1.74-.08-1.87,0-3.44.34-4.71,1.01-1.27.68-2.29,1.49-3.05,2.45-.76.96-1.31,2-1.65,3.13-.34,1.13-.51,2.11-.51,2.96v21.65h-13.91V21.93h13.4v6.11h.17c1.07-2.16,2.6-3.93,4.58-5.29,1.98-1.37,4.27-2.05,6.87-2.05.56,0,1.12.03,1.65.08.54.06.97.14,1.31.25l-.59,12.3Z"/>
  <path class="cls-1" d="M658.82,34.35c-1.13-1.07-2.46-1.98-3.99-2.71-1.53-.73-3.14-1.1-4.83-1.1-1.3,0-2.5.25-3.6.76-1.1.51-1.65,1.39-1.65,2.63s.61,2.04,1.82,2.54c1.22.51,3.18,1.08,5.89,1.7,1.58.34,3.18.82,4.79,1.44,1.61.62,3.07,1.44,4.37,2.46,1.3,1.02,2.35,2.26,3.14,3.73.79,1.47,1.19,3.22,1.19,5.26,0,2.66-.54,4.91-1.61,6.74-1.07,1.84-2.47,3.32-4.2,4.45-1.73,1.13-3.66,1.95-5.81,2.46-2.15.51-4.3.76-6.45.76-3.45,0-6.83-.55-10.13-1.65-3.31-1.1-6.06-2.73-8.27-4.88l7.8-8.23c1.24,1.36,2.77,2.49,4.58,3.39,1.81.91,3.73,1.36,5.77,1.36,1.13,0,2.25-.27,3.35-.81,1.1-.54,1.65-1.48,1.65-2.84s-.68-2.26-2.04-2.88c-1.36-.62-3.48-1.27-6.36-1.95-1.47-.34-2.94-.79-4.41-1.36-1.47-.56-2.79-1.33-3.94-2.29-1.16-.96-2.11-2.15-2.84-3.56-.74-1.41-1.1-3.11-1.1-5.09,0-2.54.54-4.71,1.61-6.49,1.07-1.78,2.46-3.24,4.16-4.37,1.7-1.13,3.58-1.96,5.64-2.5,2.06-.54,4.11-.81,6.15-.81,3.17,0,6.26.5,9.29,1.48,3.02.99,5.58,2.47,7.68,4.45l-7.63,7.89Z"/>
</svg>