<?xml version="1.0" encoding="UTF-8"?><svg id="uuid-06868e34-7d86-432d-9e13-984acd363229" xmlns="http://www.w3.org/2000/svg" viewBox="0 0 561.43 561.43"><circle cx="280.71" cy="280.71" r="280.21" style="fill:none; stroke:#fff; stroke-miterlimit:10;"/><circle cx="280.71" cy="193.29" r="137.66" style="fill:#00bc7d; opacity:.45;"/><circle cx="199.99" cy="305.21" r="137.66" style="fill:#00bc7d; opacity:.45;"/><circle cx="361.43" cy="305.21" r="137.66" style="fill:#00bc7d; opacity:.45;"/><path d="M244.22,275.29h6.1v2.49h-8.91v-13.93h8.73v2.49h-5.92v3.31h5.19v2.53h-5.19v3.11Z" style="fill:#fff;"/><path d="M269.86,268.33v9.44h-2.65v-7.38h-3.84v7.38h-2.65v-7.38h-4.77v7.38h-2.65v-7.38h-1.78v-2.06h1.78v-.69c0-2.83,1.46-4.45,4.14-4.45h1.13v2.47h-.61c-1.52,0-2,.83-2.02,1.96v.71h4.77v-.69c0-2.83,1.46-4.45,4.14-4.45h.55v2.47h-.38c-1.25,0-1.66.75-1.66,1.78v.89h6.49ZM266.85,265.08c0-.89.77-1.58,1.68-1.58s1.68.69,1.68,1.58-.73,1.6-1.68,1.6-1.68-.71-1.68-1.6Z" style="fill:#fff;"/><path d="M271.94,273.02c0-2.99,2.43-4.93,5.17-4.93,1.72,0,3.09.79,3.98,2.02l-2,1.39c-.42-.59-1.21-.95-1.96-.95-1.5,0-2.51,1.09-2.51,2.47s1.01,2.53,2.51,2.53c.75,0,1.54-.36,1.96-.95l2,1.39c-.89,1.23-2.26,2.02-3.98,2.02-2.75,0-5.17-2-5.17-4.99Z" style="fill:#fff;"/><path d="M289.93,268.33h2.65v9.44h-2.65v-1.35c-.63.97-1.84,1.6-3.11,1.6-2.61,0-4.55-2.02-4.55-4.95s1.9-4.97,4.61-4.97c1.21,0,2.42.53,3.05,1.5v-1.25ZM289.85,273.06c0-1.44-1.15-2.51-2.47-2.51s-2.41,1.13-2.41,2.51,1.03,2.49,2.43,2.49,2.45-1.13,2.45-2.49Z" style="fill:#fff;"/><path d="M294.66,273.02c0-2.99,2.42-4.93,5.17-4.93,1.72,0,3.09.79,3.98,2.02l-2,1.39c-.42-.59-1.21-.95-1.96-.95-1.5,0-2.51,1.09-2.51,2.47s1.01,2.53,2.51,2.53c.75,0,1.54-.36,1.96-.95l2,1.39c-.89,1.23-2.26,2.02-3.98,2.02-2.75,0-5.17-2-5.17-4.99Z" style="fill:#fff;"/><path d="M305.35,265.08c0-.89.77-1.58,1.68-1.58s1.68.69,1.68,1.58-.75,1.6-1.68,1.6-1.68-.71-1.68-1.6ZM305.71,277.77v-9.44h2.65v9.44h-2.65Z" style="fill:#fff;"/><path d="M318.12,268.33h2.65v9.44h-2.65v-1.35c-.63.97-1.84,1.6-3.11,1.6-2.61,0-4.55-2.02-4.55-4.95s1.9-4.97,4.61-4.97c1.21,0,2.42.53,3.05,1.5v-1.25ZM318.04,273.06c0-1.44-1.15-2.51-2.47-2.51s-2.41,1.13-2.41,2.51,1.03,2.49,2.43,2.49,2.45-1.13,2.45-2.49Z" style="fill:#fff;"/><path d="M256.13,297.98h-2.87l-1.01-8.63-3.4,7.05h-2.2l-3.44-7.05-1.01,8.63h-2.87l1.72-13.93h2.38l4.3,9.14,4.26-9.14h2.43l1.7,13.93Z" style="fill:#fff;"/><path d="M265.34,288.54h2.65v9.44h-2.65v-1.35c-.63.97-1.84,1.6-3.11,1.6-2.61,0-4.55-2.02-4.55-4.95s1.9-4.97,4.61-4.97c1.21,0,2.42.53,3.05,1.5v-1.25ZM265.26,293.27c0-1.43-1.15-2.51-2.47-2.51s-2.4,1.13-2.4,2.51,1.03,2.49,2.43,2.49,2.45-1.13,2.45-2.49Z" style="fill:#fff;"/><path d="M270.07,295.01h2.49c0,.55.47,1.13,1.39,1.13.77,0,1.35-.38,1.35-.93,0-.4-.32-.61-1.03-.79l-1.25-.3c-2.43-.65-2.75-2-2.75-2.99,0-1.46,1.52-2.83,3.7-2.83,1.72,0,3.74.83,3.72,3.07h-2.53c0-.65-.53-.99-1.15-.99s-1.09.34-1.09.83c0,.44.4.67.93.81l1.56.4c2.26.61,2.55,2.02,2.55,2.79,0,1.98-2.02,3.01-3.96,3.01s-3.9-1.13-3.92-3.21Z" style="fill:#fff;"/><path d="M279.45,295.01h2.49c0,.55.46,1.13,1.39,1.13.77,0,1.35-.38,1.35-.93,0-.4-.32-.61-1.03-.79l-1.25-.3c-2.42-.65-2.75-2-2.75-2.99,0-1.46,1.52-2.83,3.7-2.83,1.72,0,3.74.83,3.72,3.07h-2.53c0-.65-.53-.99-1.15-.99s-1.09.34-1.09.83c0,.44.4.67.93.81l1.56.4c2.26.61,2.55,2.02,2.55,2.79,0,1.98-2.02,3.01-3.96,3.01s-3.9-1.13-3.92-3.21Z" style="fill:#fff;"/><path d="M289.05,285.29c0-.89.77-1.58,1.68-1.58s1.68.69,1.68,1.58-.75,1.6-1.68,1.6-1.68-.71-1.68-1.6ZM289.41,297.98v-9.44h2.65v9.44h-2.65Z" style="fill:#fff;"/><path d="M309.82,292.81v5.17h-2.67v-5.09c0-1.48-.77-2.1-1.7-2.1-1.13-.02-1.86.79-1.86,2.55v4.65h-2.65v-5.05c0-1.5-.77-2.14-1.66-2.14-.95,0-1.92.53-1.92,2.22v4.97h-2.65v-9.44h2.65v1.52c.38-1.17,1.66-1.76,2.67-1.76,1.39,0,2.47.67,3.03,1.86.69-1.37,2.16-1.86,3.15-1.86,2.36,0,3.6,1.68,3.6,4.51Z" style="fill:#fff;"/><path d="M319.44,288.54h2.65v9.44h-2.65v-1.35c-.63.97-1.84,1.6-3.11,1.6-2.61,0-4.55-2.02-4.55-4.95s1.9-4.97,4.61-4.97c1.21,0,2.42.53,3.05,1.5v-1.25ZM319.36,293.27c0-1.43-1.15-2.51-2.47-2.51s-2.41,1.13-2.41,2.51,1.03,2.49,2.43,2.49,2.45-1.13,2.45-2.49Z" style="fill:#fff;"/><path d="M238.22,112.24c3.15,0,4.55,2.26,4.55,4.55s-1.39,4.51-4.55,4.51h-2.87v4.87h-2.81v-13.93h5.68ZM238.08,118.83c1.35,0,1.86-1.05,1.86-2.04s-.51-2.06-1.82-2.06h-2.77v4.1h2.73Z" style="fill:#fff;"/><path d="M243.63,121.45c0-2.99,2.38-4.97,5.07-4.97s5.07,1.98,5.07,4.97-2.38,4.95-5.07,4.95-5.07-1.98-5.07-4.95ZM251.09,121.45c0-1.48-1.07-2.51-2.38-2.51s-2.38,1.03-2.38,2.51,1.07,2.49,2.38,2.49,2.38-1.03,2.38-2.49Z" style="fill:#fff;"/><path d="M261.24,116.72v2.06h-2v7.38h-2.65v-7.38h-1.72v-2.06h1.72v-3.44h2.65v3.44h2Z" style="fill:#fff;"/><path d="M272.03,122.3h-7.09c.28,1.11,1.17,1.76,2.43,1.76.97,0,1.9-.44,2.49-1.11l1.54,1.56c-.89,1.19-2.53,1.9-4.18,1.9-2.91,0-5.03-2.04-5.03-4.95s2.32-4.97,5.01-4.97,4.91,1.92,4.91,4.81c0,.26-.02.59-.06,1.01ZM269.42,120.58c-.08-1.11-.99-1.82-2.18-1.82-1.09,0-2.02.55-2.3,1.82h4.49Z" style="fill:#fff;"/><path d="M283.34,120.99v5.17h-2.65v-5.03c0-1.48-.89-2.14-1.8-2.14s-2.12.5-2.12,2.22v4.95h-2.65v-9.44h2.65v1.54c.44-1.23,1.92-1.78,2.83-1.78,2.46,0,3.76,1.68,3.74,4.51Z" style="fill:#fff;"/><path d="M293.85,116.72v2.02l-4.71,4.95h4.71v2.47h-8.49v-2l4.61-4.97h-4.33v-2.47h8.21Z" style="fill:#fff;"/><path d="M295.75,113.47c0-.89.77-1.58,1.68-1.58s1.68.69,1.68,1.58-.75,1.6-1.68,1.6-1.68-.71-1.68-1.6ZM296.11,126.16v-9.44h2.65v9.44h-2.65Z" style="fill:#fff;"/><path d="M308.52,116.72h2.65v9.44h-2.65v-1.35c-.63.97-1.84,1.6-3.11,1.6-2.61,0-4.55-2.02-4.55-4.95s1.9-4.97,4.61-4.97c1.21,0,2.42.53,3.05,1.5v-1.25ZM308.44,121.45c0-1.44-1.15-2.51-2.47-2.51s-2.41,1.13-2.41,2.51,1.03,2.49,2.43,2.49,2.45-1.13,2.45-2.49Z" style="fill:#fff;"/><path d="M313.84,126.16v-14.57h2.65v14.57h-2.65Z" style="fill:#fff;"/><path d="M328.45,122.3h-7.09c.28,1.11,1.17,1.76,2.43,1.76.97,0,1.9-.44,2.49-1.11l1.54,1.56c-.89,1.19-2.53,1.9-4.18,1.9-2.91,0-5.03-2.04-5.03-4.95s2.32-4.97,5.01-4.97,4.91,1.92,4.91,4.81c0,.26-.02.59-.06,1.01ZM325.84,120.58c-.08-1.11-.99-1.82-2.18-1.82-1.09,0-2.02.55-2.3,1.82h4.49Z" style="fill:#fff;"/><path d="M212.72,131.68h1.17l-2.61,8.7h-1.1l-2.63-8.7h1.17l2,6.78,2-6.78Z" style="fill:#fff;"/><path d="M214.2,137.43c0-1.87,1.4-3.09,3.08-3.09s3.09,1.22,3.09,3.09-1.41,3.11-3.09,3.11-3.08-1.24-3.08-3.11ZM219.28,137.43c0-1.21-.91-2.06-2-2.06s-1.97.85-1.97,2.06.9,2.07,1.97,2.07,2-.85,2-2.07Z" style="fill:#fff;"/><path d="M221.91,140.38v-9.11h1.1v9.11h-1.1Z" style="fill:#fff;"/><path d="M224.51,137.43c0-1.87,1.4-3.09,3.08-3.09s3.09,1.22,3.09,3.09-1.41,3.11-3.09,3.11-3.08-1.24-3.08-3.11ZM229.59,137.43c0-1.21-.91-2.06-2-2.06s-1.97.85-1.97,2.06.9,2.07,1.97,2.07,2-.85,2-2.07Z" style="fill:#fff;"/><path d="M237.64,136.97v3.41h-1.1v-3.35c0-.99-.61-1.62-1.43-1.62s-1.81.49-1.81,1.77v3.2h-1.1v-5.9h1.1v.9c.35-.72,1.31-1.05,1.96-1.05,1.46,0,2.39.99,2.37,2.64Z" style="fill:#fff;"/><path d="M242.23,134.48v.95h-1.28v4.95h-1.1v-4.95h-1.06v-.95h1.06v-2.22h1.1v2.22h1.28Z" style="fill:#fff;"/><path d="M247.97,134.48h1.1v5.9h-1.1v-1.05c-.39.71-1.21,1.2-2.16,1.2-1.54,0-2.89-1.3-2.89-3.11s1.28-3.09,2.94-3.09c.88,0,1.72.38,2.11,1.07v-.92ZM247.97,137.43c0-1.21-1.02-2.06-2.01-2.06-1.07,0-1.93.95-1.93,2.06s.86,2.07,1.95,2.07,2-.87,2-2.07ZM246.67,133.62h-1.07l-1.49-1.94h1.34l1.23,1.94Z" style="fill:#fff;"/><path d="M258.85,131.28h1.1v9.11h-1.1v-.92c-.39.67-1.25,1.07-2.1,1.07-1.62,0-2.96-1.25-2.96-3.11s1.33-3.09,2.94-3.09c.88,0,1.72.38,2.11,1.07v-4.13ZM258.85,137.41c0-1.28-1.04-2.05-2.01-2.05-1.07,0-1.93.86-1.93,2.05s.86,2.08,1.93,2.08,2.01-.82,2.01-2.08Z" style="fill:#fff;"/><path d="M261.64,132.31c0-.42.35-.73.77-.73s.78.32.78.73-.35.73-.78.73-.77-.32-.77-.73ZM261.87,140.38v-5.9h1.1v5.9h-1.1Z" style="fill:#fff;"/><path d="M272.72,134.48h1.1v5.9h-1.1v-1.05c-.39.71-1.21,1.2-2.16,1.2-1.54,0-2.89-1.3-2.89-3.11s1.28-3.09,2.94-3.09c.88,0,1.72.38,2.11,1.07v-.92ZM272.72,137.43c0-1.21-1.02-2.06-2.01-2.06-1.07,0-1.93.95-1.93,2.06s.86,2.07,1.95,2.07,2-.87,2-2.07Z" style="fill:#fff;"/><path d="M279.99,134.48h1.1v5.9h-1.1v-.92c-.35.75-1.3,1.07-1.96,1.07-1.48,0-2.39-.99-2.37-2.64v-3.41h1.1v3.39c0,1,.59,1.63,1.41,1.63s1.81-.49,1.82-1.77v-3.25Z" style="fill:#fff;"/><path d="M285.83,134.48v.95h-1.28v4.95h-1.1v-4.95h-1.06v-.95h1.06v-2.22h1.1v2.22h1.28Z" style="fill:#fff;"/><path d="M286.52,137.43c0-1.87,1.4-3.09,3.08-3.09s3.09,1.22,3.09,3.09-1.41,3.11-3.09,3.11-3.08-1.24-3.08-3.11ZM291.6,137.43c0-1.21-.91-2.06-2-2.06s-1.97.85-1.97,2.06.9,2.07,1.97,2.07,2-.85,2-2.07Z" style="fill:#fff;"/><path d="M293.76,138.65h1.02c.01.5.45.92,1.18.92s1.19-.37,1.19-.85c0-.44-.34-.67-.81-.77l-.81-.19c-.99-.27-1.55-.75-1.55-1.69s.83-1.74,2.02-1.74c1,0,2.03.53,2.03,1.72h-1.06c-.01-.45-.48-.76-.95-.76-.57,0-.95.37-.95.82,0,.4.38.62.76.71l.87.22c1.23.3,1.54,1.04,1.54,1.71,0,1.1-1.06,1.79-2.29,1.79-1.06,0-2.15-.67-2.2-1.88Z" style="fill:#fff;"/><path d="M303.6,134.48h1.19l-2.46,5.9h-1.07l-2.45-5.9h1.17l1.82,4.5,1.81-4.5Z" style="fill:#fff;"/><path d="M305.71,132.31c0-.42.35-.73.77-.73s.78.32.78.73-.35.73-.78.73-.77-.32-.77-.73ZM305.94,140.38v-5.9h1.1v5.9h-1.1Z" style="fill:#fff;"/><path d="M308.94,140.38v-9.11h1.1v9.11h-1.1Z" style="fill:#fff;"/><path d="M316.2,134.48h1.1v5.9h-1.1v-.92c-.35.75-1.3,1.07-1.96,1.07-1.48,0-2.39-.99-2.37-2.64v-3.41h1.1v3.39c0,1,.59,1.63,1.42,1.63s1.81-.49,1.82-1.77v-3.25Z" style="fill:#fff;"/><path d="M325.36,137.44c0,1.87-1.33,3.09-2.94,3.09-.88,0-1.72-.38-2.11-1.07v3.79h-1.1v-8.77h1.1v.92c.39-.67,1.25-1.07,2.1-1.07,1.62,0,2.96,1.25,2.96,3.11ZM324.25,137.45c0-1.17-.86-2.08-1.95-2.08s-1.99.82-1.99,2.08,1.04,2.05,1.99,2.05c1.09,0,1.95-.86,1.95-2.05Z" style="fill:#fff;"/><path d="M333.04,137.44c0,1.87-1.33,3.09-2.94,3.09-.88,0-1.72-.38-2.11-1.07v3.79h-1.1v-8.77h1.1v.92c.39-.67,1.25-1.07,2.1-1.07,1.62,0,2.96,1.25,2.96,3.11ZM331.93,137.45c0-1.17-.86-2.08-1.95-2.08s-1.99.82-1.99,2.08,1.04,2.05,1.99,2.05c1.09,0,1.95-.86,1.95-2.05Z" style="fill:#fff;"/><path d="M339.22,134.48h1.1v5.9h-1.1v-1.05c-.39.71-1.21,1.2-2.16,1.2-1.54,0-2.89-1.3-2.89-3.11s1.28-3.09,2.94-3.09c.88,0,1.72.38,2.11,1.07v-.92ZM339.22,137.43c0-1.21-1.02-2.06-2.01-2.06-1.07,0-1.93.95-1.93,2.06s.86,2.07,1.95,2.07,2-.87,2-2.07Z" style="fill:#fff;"/><path d="M346.02,134.56l-.18,1.04c-.32-.15-.63-.2-.86-.2-1.18,0-1.64,1.28-1.64,2.83v2.16h-1.11v-5.9h1.11v1.34c.3-1.04.87-1.49,1.65-1.49.42,0,.85.11,1.02.23Z" style="fill:#fff;"/><path d="M346.58,138.65h1.02c.01.5.45.92,1.18.92s1.19-.37,1.19-.85c0-.44-.34-.67-.81-.77l-.81-.19c-.99-.27-1.55-.75-1.55-1.69s.83-1.74,2.02-1.74c1,0,2.03.53,2.03,1.72h-1.06c-.01-.45-.48-.76-.95-.76-.57,0-.95.37-.95.82,0,.4.38.62.76.71l.87.22c1.23.3,1.54,1.04,1.54,1.71,0,1.1-1.06,1.79-2.29,1.79-1.06,0-2.15-.67-2.2-1.88Z" style="fill:#fff;"/><path d="M352.32,132.31c0-.42.35-.73.77-.73s.78.32.78.73-.35.73-.78.73-.77-.32-.77-.73ZM352.54,140.38v-5.9h1.1v5.9h-1.1Z" style="fill:#fff;"/><path d="M86.46,312.73l-3.31-4.99h-.95v4.99h-2.81v-13.93h5.56c3.19,0,4.57,2.26,4.57,4.55,0,1.98-1.39,3.92-3.35,4.26l3.6,5.11h-3.29ZM82.19,301.3v4.18h2.24c1.58,0,2.24-.95,2.24-2.06s-.71-2.12-2.02-2.12h-2.47Z" style="fill:#fff;"/><path d="M98.1,303.3h2.65v9.44h-2.65v-1.54c-.4,1.23-1.9,1.78-2.83,1.78-2.47,0-3.76-1.66-3.74-4.49v-5.19h2.65v5.05c0,1.48.89,2.16,1.8,2.16s2.12-.53,2.12-2.22v-4.99Z" style="fill:#fff;"/><path d="M102.82,308.02c0-2.99,2.38-4.97,5.07-4.97s5.07,1.98,5.07,4.97-2.39,4.95-5.07,4.95-5.07-1.98-5.07-4.95ZM110.28,308.02c0-1.48-1.07-2.51-2.39-2.51s-2.38,1.03-2.38,2.51,1.07,2.49,2.38,2.49,2.39-1.03,2.39-2.49Z" style="fill:#fff;"/><path d="M115.05,312.73v-14.57h2.65v14.57h-2.65Z" style="fill:#fff;"/><path d="M119.78,308.02c0-2.99,2.39-4.97,5.07-4.97s5.07,1.98,5.07,4.97-2.39,4.95-5.07,4.95-5.07-1.98-5.07-4.95ZM127.24,308.02c0-1.48-1.07-2.51-2.39-2.51s-2.38,1.03-2.38,2.51,1.07,2.49,2.38,2.49,2.39-1.03,2.39-2.49Z" style="fill:#fff;"/><path d="M78.29,322.62c0-2.46,1.96-4.52,4.42-4.52,1.34,0,2.5.57,3.27,1.48l-.83.71c-.58-.68-1.47-1.12-2.44-1.12-1.83,0-3.27,1.59-3.27,3.46s1.44,3.42,3.27,3.42c.97,0,1.86-.44,2.44-1.12l.83.71c-.77.91-1.93,1.48-3.27,1.48-2.46,0-4.42-2.02-4.42-4.48Z" style="fill:#fff;"/><path d="M86.88,324c0-1.87,1.4-3.09,3.08-3.09s3.09,1.23,3.09,3.09-1.41,3.11-3.09,3.11-3.08-1.24-3.08-3.11ZM91.96,324c0-1.21-.91-2.06-1.99-2.06s-1.97.85-1.97,2.06.9,2.07,1.97,2.07,1.99-.85,1.99-2.07Z" style="fill:#fff;"/><path d="M100.01,323.54v3.41h-1.1v-3.35c0-.99-.61-1.62-1.43-1.62s-1.81.49-1.81,1.77v3.2h-1.1v-5.9h1.1v.9c.35-.72,1.31-1.05,1.96-1.05,1.47,0,2.39.99,2.37,2.64Z" style="fill:#fff;"/><path d="M101.38,325.22h1.02c.01.5.46.92,1.18.92s1.19-.37,1.19-.85c0-.44-.34-.67-.81-.77l-.81-.19c-.99-.27-1.55-.75-1.55-1.69s.83-1.74,2.02-1.74c1,0,2.03.53,2.03,1.72h-1.06c-.01-.45-.48-.76-.95-.76-.57,0-.95.37-.95.82,0,.4.38.62.76.71l.87.21c1.22.3,1.54,1.04,1.54,1.71,0,1.1-1.06,1.79-2.29,1.79-1.06,0-2.15-.67-2.2-1.88Z" style="fill:#fff;"/><path d="M111.99,321.06h1.1v5.9h-1.1v-1.05c-.39.71-1.21,1.2-2.16,1.2-1.54,0-2.89-1.3-2.89-3.11s1.28-3.09,2.94-3.09c.88,0,1.72.38,2.11,1.07v-.92ZM111.99,324c0-1.21-1.02-2.06-2.01-2.06-1.07,0-1.93.95-1.93,2.06s.86,2.07,1.95,2.07,1.99-.87,1.99-2.07Z" style="fill:#fff;"/><path d="M121.16,324.01c0,1.87-1.33,3.09-2.94,3.09-.88,0-1.72-.38-2.11-1.07v3.79h-1.1v-8.77h1.1v.92c.39-.67,1.25-1.07,2.1-1.07,1.62,0,2.96,1.25,2.96,3.11ZM120.05,324.02c0-1.18-.86-2.08-1.95-2.08s-1.99.82-1.99,2.08,1.04,2.05,1.99,2.05c1.09,0,1.95-.86,1.95-2.05Z" style="fill:#fff;"/><path d="M128.23,324.48h-4.8c.16,1.05.92,1.59,1.93,1.59.72,0,1.38-.33,1.72-.92l.95.38c-.5,1.02-1.57,1.58-2.7,1.58-1.68,0-3.03-1.25-3.03-3.12s1.35-3.08,3.03-3.08,2.93,1.21,2.93,3.08c0,.16-.01.33-.02.49ZM127.16,323.53c-.14-1.01-.86-1.59-1.83-1.59s-1.7.53-1.88,1.59h3.71Z" style="fill:#fff;"/><path d="M133.65,321.06h1.19l-2.46,5.9h-1.07l-2.45-5.9h1.18l1.82,4.5,1.81-4.5Z" style="fill:#fff;"/><path d="M135.43,324c0-1.87,1.4-3.09,3.08-3.09s3.1,1.23,3.1,3.09-1.41,3.11-3.1,3.11-3.08-1.24-3.08-3.11ZM140.51,324c0-1.21-.91-2.06-2-2.06s-1.97.85-1.97,2.06.9,2.07,1.97,2.07,2-.85,2-2.07Z" style="fill:#fff;"/><path d="M143.13,326.95v-9.11h1.1v9.11h-1.1Z" style="fill:#fff;"/><path d="M151.69,324.48h-4.8c.16,1.05.92,1.59,1.93,1.59.72,0,1.38-.33,1.72-.92l.95.38c-.5,1.02-1.57,1.58-2.7,1.58-1.68,0-3.03-1.25-3.03-3.12s1.35-3.08,3.03-3.08,2.93,1.21,2.93,3.08c0,.16-.01.33-.03.49ZM150.61,323.53c-.14-1.01-.86-1.59-1.83-1.59s-1.71.53-1.88,1.59h3.71Z" style="fill:#fff;"/><path d="M157.88,321.06v.91l-3.64,3.95h3.64v1.04h-5.18v-.91l3.57-3.95h-3.38v-1.04h4.99Z" style="fill:#fff;"/><path d="M164.14,321.06v.91l-3.64,3.95h3.64v1.04h-5.18v-.91l3.58-3.95h-3.38v-1.04h4.99Z" style="fill:#fff;"/><path d="M170.24,321.06h1.1v5.9h-1.1v-1.05c-.39.71-1.21,1.2-2.16,1.2-1.54,0-2.89-1.3-2.89-3.11s1.27-3.09,2.94-3.09c.88,0,1.72.38,2.11,1.07v-.92ZM170.24,324c0-1.21-1.02-2.06-2.01-2.06-1.07,0-1.93.95-1.93,2.06s.86,2.07,1.95,2.07,2-.87,2-2.07Z" style="fill:#fff;"/><path d="M177.8,217.77h3.56v1.06h-4.71v-8.7h1.15v7.64Z" style="fill:#fff;"/><path d="M187.96,216.36h-4.8c.16,1.05.92,1.59,1.93,1.59.72,0,1.38-.33,1.72-.92l.95.38c-.51,1.02-1.57,1.58-2.7,1.58-1.68,0-3.03-1.25-3.03-3.12s1.35-3.08,3.03-3.08,2.93,1.21,2.93,3.08c0,.16-.01.33-.03.49ZM186.89,215.41c-.14-1.01-.86-1.59-1.83-1.59s-1.71.53-1.88,1.59h3.71Z" style="fill:#fff;"/><path d="M194.92,215.42v3.41h-1.1v-3.35c0-.99-.61-1.62-1.43-1.62s-1.81.49-1.81,1.77v3.2h-1.1v-5.9h1.1v.9c.35-.72,1.31-1.05,1.96-1.05,1.47,0,2.39.99,2.37,2.64Z" style="fill:#fff;"/><path d="M199.51,212.93v.95h-1.28v4.95h-1.1v-4.95h-1.06v-.95h1.06v-2.22h1.1v2.22h1.28Z" style="fill:#fff;"/><path d="M206.15,216.36h-4.8c.16,1.05.92,1.59,1.93,1.59.72,0,1.38-.33,1.72-.92l.95.38c-.5,1.02-1.57,1.58-2.7,1.58-1.68,0-3.03-1.25-3.03-3.12s1.35-3.08,3.03-3.08,2.93,1.21,2.93,3.08c0,.16-.01.33-.03.49ZM205.08,215.41c-.14-1.01-.86-1.59-1.83-1.59s-1.71.53-1.88,1.59h3.71Z" style="fill:#fff;"/><path d="M212.34,212.93v.91l-3.64,3.95h3.64v1.04h-5.18v-.91l3.57-3.95h-3.38v-1.04h4.99Z" style="fill:#fff;"/><path d="M218.6,212.93v.91l-3.64,3.95h3.64v1.04h-5.18v-.91l3.58-3.95h-3.38v-1.04h4.99Z" style="fill:#fff;"/><path d="M224.71,212.93h1.1v5.9h-1.1v-1.05c-.39.71-1.21,1.2-2.16,1.2-1.54,0-2.89-1.3-2.89-3.11s1.27-3.09,2.94-3.09c.88,0,1.72.38,2.11,1.07v-.92ZM224.71,215.88c0-1.21-1.02-2.06-2.01-2.06-1.07,0-1.93.95-1.93,2.06s.86,2.07,1.95,2.07,2-.87,2-2.07Z" style="fill:#fff;"/><path d="M391.36,308.35h2.81c.02.99.99,1.82,2.28,1.82s2.08-.69,2.08-1.68c0-.77-.57-1.31-1.76-1.68l-1.7-.49c-3.05-.81-3.6-2.65-3.6-3.9,0-2.49,2.14-4.2,4.81-4.2s4.65,1.6,4.65,4.24h-2.81c0-.99-.69-1.76-1.9-1.76-1.09,0-1.92.73-1.92,1.66,0,.34.1,1.05,1.56,1.48l1.56.44c2.1.63,3.94,1.7,3.94,4.06,0,2.77-2.36,4.29-4.99,4.29-2.97,0-5.01-1.84-5.01-4.29Z" style="fill:#fff;"/><path d="M408.89,302.95v2.06h-2v7.38h-2.65v-7.38h-1.72v-2.06h1.72v-3.44h2.65v3.44h2Z" style="fill:#fff;"/><path d="M417.5,303.02l-.61,2.53c-.57-.3-1.03-.34-1.35-.34-1.35,0-2.28,1.27-2.28,3.96v3.23h-2.65v-9.44h2.63v2.02c.53-1.58,1.6-2.26,2.77-2.26.51,0,1.07.08,1.5.3Z" style="fill:#fff;"/><path d="M425.36,302.95h2.65v9.44h-2.65v-1.54c-.4,1.23-1.9,1.78-2.83,1.78-2.47,0-3.76-1.66-3.74-4.49v-5.19h2.65v5.05c0,1.48.89,2.16,1.8,2.16s2.12-.53,2.12-2.22v-4.99Z" style="fill:#fff;"/><path d="M445.77,307.22v5.17h-2.67v-5.09c0-1.48-.77-2.1-1.7-2.1-1.13-.02-1.86.79-1.86,2.55v4.65h-2.65v-5.05c0-1.5-.77-2.14-1.66-2.14-.95,0-1.92.53-1.92,2.22v4.97h-2.65v-9.44h2.65v1.52c.38-1.17,1.66-1.76,2.67-1.76,1.39,0,2.47.67,3.03,1.86.69-1.37,2.16-1.86,3.15-1.86,2.36,0,3.6,1.68,3.6,4.51Z" style="fill:#fff;"/><path d="M457.59,308.53h-7.09c.28,1.11,1.17,1.76,2.42,1.76.97,0,1.9-.44,2.49-1.11l1.54,1.56c-.89,1.19-2.53,1.9-4.18,1.9-2.91,0-5.03-2.04-5.03-4.95s2.32-4.97,5.01-4.97,4.91,1.92,4.91,4.81c0,.26-.02.59-.06,1.01ZM454.98,306.81c-.08-1.11-.99-1.82-2.18-1.82-1.09,0-2.02.55-2.3,1.82h4.49Z" style="fill:#fff;"/><path d="M468.91,307.22v5.17h-2.65v-5.03c0-1.48-.89-2.14-1.8-2.14s-2.12.5-2.12,2.22v4.95h-2.65v-9.44h2.65v1.54c.44-1.23,1.92-1.78,2.83-1.78,2.47,0,3.76,1.68,3.74,4.51Z" style="fill:#fff;"/><path d="M476.89,302.95v2.06h-2v7.38h-2.65v-7.38h-1.72v-2.06h1.72v-3.44h2.65v3.44h2Z" style="fill:#fff;"/><path d="M478.24,299.7c0-.89.77-1.58,1.68-1.58s1.68.69,1.68,1.58-.75,1.6-1.68,1.6-1.68-.71-1.68-1.6ZM478.61,312.39v-9.44h2.65v9.44h-2.65Z" style="fill:#fff;"/><path d="M347.31,322.28c0-2.46,1.96-4.52,4.42-4.52,1.34,0,2.5.57,3.27,1.48l-.83.71c-.58-.68-1.47-1.12-2.44-1.12-1.83,0-3.27,1.59-3.27,3.46s1.44,3.42,3.27,3.42c.97,0,1.86-.44,2.44-1.12l.83.71c-.77.91-1.93,1.48-3.27,1.48-2.46,0-4.42-2.02-4.42-4.48Z" style="fill:#fff;"/><path d="M355.9,323.66c0-1.87,1.4-3.09,3.08-3.09s3.09,1.23,3.09,3.09-1.41,3.11-3.09,3.11-3.08-1.24-3.08-3.11ZM360.98,323.66c0-1.21-.91-2.06-2-2.06s-1.97.85-1.97,2.06.9,2.07,1.97,2.07,2-.85,2-2.07Z" style="fill:#fff;"/><path d="M369.04,323.2v3.41h-1.1v-3.35c0-.99-.61-1.62-1.43-1.62s-1.81.49-1.81,1.77v3.2h-1.1v-5.9h1.1v.9c.35-.72,1.31-1.05,1.96-1.05,1.46,0,2.39.99,2.37,2.64Z" style="fill:#fff;"/><path d="M370.47,323.66c0-1.87,1.4-3.09,3.08-3.09s3.1,1.23,3.1,3.09-1.41,3.11-3.1,3.11-3.08-1.24-3.08-3.11ZM375.54,323.66c0-1.21-.91-2.06-2-2.06s-1.97.85-1.97,2.06.9,2.07,1.97,2.07,2-.85,2-2.07Z" style="fill:#fff;"/><path d="M377.7,324.88h1.02c.01.5.45.92,1.17.92s1.19-.37,1.19-.85c0-.44-.34-.67-.81-.77l-.81-.19c-.99-.27-1.55-.75-1.55-1.69s.83-1.74,2.02-1.74c1,0,2.03.53,2.03,1.72h-1.06c-.01-.45-.48-.76-.95-.76-.57,0-.95.37-.95.82,0,.4.38.62.76.71l.87.21c1.23.3,1.54,1.04,1.54,1.71,0,1.1-1.06,1.79-2.29,1.79-1.06,0-2.15-.67-2.2-1.88Z" style="fill:#fff;"/><path d="M383.25,323.66c0-1.87,1.48-3.09,3.17-3.09.92,0,1.73.37,2.25.93l-.69.72c-.37-.38-.9-.62-1.52-.62-1.16,0-2.1.85-2.1,2.06s.93,2.07,2.1,2.07c.62,0,1.15-.24,1.52-.62l.69.72c-.52.58-1.33.93-2.25.93-1.69,0-3.17-1.24-3.17-3.11Z" style="fill:#fff;"/><path d="M395.45,324.14h-4.8c.16,1.05.92,1.59,1.93,1.59.72,0,1.38-.33,1.72-.92l.95.38c-.51,1.02-1.57,1.58-2.7,1.58-1.68,0-3.03-1.25-3.03-3.12s1.35-3.08,3.03-3.08,2.93,1.21,2.93,3.08c0,.16-.01.33-.03.49ZM394.38,323.19c-.14-1.01-.86-1.59-1.83-1.59s-1.71.53-1.88,1.59h3.71Z" style="fill:#fff;"/><path d="M402.41,323.2v3.41h-1.1v-3.35c0-.99-.61-1.62-1.43-1.62s-1.81.49-1.81,1.77v3.2h-1.1v-5.9h1.1v.9c.35-.72,1.31-1.05,1.96-1.05,1.47,0,2.39.99,2.37,2.64Z" style="fill:#fff;"/><path d="M408.96,320.71v.91l-3.64,3.95h3.64v1.04h-5.18v-.91l3.57-3.95h-3.38v-1.04h4.99Z" style="fill:#fff;"/><path d="M415.06,320.71h1.1v5.9h-1.1v-1.05c-.39.71-1.21,1.2-2.16,1.2-1.54,0-2.89-1.3-2.89-3.11s1.28-3.09,2.94-3.09c.88,0,1.72.38,2.11,1.07v-.92ZM415.06,323.66c0-1.21-1.02-2.06-2.01-2.06-1.07,0-1.93.95-1.93,2.06s.86,2.07,1.95,2.07,1.99-.87,1.99-2.07Z" style="fill:#fff;"/><path d="M425.94,317.51h1.1v9.11h-1.1v-.92c-.39.67-1.25,1.07-2.1,1.07-1.62,0-2.96-1.25-2.96-3.11s1.33-3.09,2.94-3.09c.88,0,1.72.38,2.11,1.07v-4.13ZM425.94,323.64c0-1.28-1.04-2.05-2.01-2.05-1.07,0-1.93.86-1.93,2.05s.86,2.08,1.93,2.08,2.01-.82,2.01-2.08Z" style="fill:#fff;"/><path d="M428.73,318.54c0-.42.35-.73.77-.73s.78.32.78.73-.35.73-.78.73-.77-.32-.77-.73ZM428.96,326.61v-5.9h1.1v5.9h-1.1Z" style="fill:#fff;"/><path d="M437.99,320.71v.95h-1.28v4.95h-1.1v-4.95h-1.06v-.95h1.06v-2.22h1.1v2.22h1.28Z" style="fill:#fff;"/><path d="M444.63,324.14h-4.8c.16,1.05.92,1.59,1.93,1.59.72,0,1.38-.33,1.72-.92l.95.38c-.5,1.02-1.57,1.58-2.7,1.58-1.68,0-3.03-1.25-3.03-3.12s1.35-3.08,3.03-3.08,2.93,1.21,2.93,3.08c0,.16-.01.33-.02.49ZM443.56,323.19c-.14-1.01-.86-1.59-1.83-1.59s-1.7.53-1.88,1.59h3.71Z" style="fill:#fff;"/><path d="M445.74,323.66c0-1.87,1.48-3.09,3.17-3.09.92,0,1.73.37,2.25.93l-.69.72c-.37-.38-.9-.62-1.52-.62-1.16,0-2.1.85-2.1,2.06s.93,2.07,2.1,2.07c.62,0,1.15-.24,1.52-.62l.69.72c-.52.58-1.33.93-2.25.93-1.69,0-3.17-1.24-3.17-3.11Z" style="fill:#fff;"/><path d="M457.98,323.2v3.41h-1.1v-3.35c0-.99-.61-1.62-1.43-1.62s-1.81.49-1.81,1.77v3.2h-1.1v-5.9h1.1v.9c.35-.72,1.31-1.05,1.96-1.05,1.47,0,2.39.99,2.37,2.64Z" style="fill:#fff;"/><path d="M459.59,318.54c0-.42.35-.73.77-.73s.78.32.78.73-.35.73-.78.73-.77-.32-.77-.73ZM459.81,326.61v-5.9h1.1v5.9h-1.1Z" style="fill:#fff;"/><path d="M462.4,323.66c0-1.87,1.48-3.09,3.17-3.09.92,0,1.73.37,2.25.93l-.69.72c-.37-.38-.9-.62-1.52-.62-1.16,0-2.1.85-2.1,2.06s.93,2.07,2.1,2.07c.62,0,1.15-.24,1.52-.62l.69.72c-.52.58-1.33.93-2.25.93-1.69,0-3.17-1.24-3.17-3.11Z" style="fill:#fff;"/><path d="M474.64,323.2v3.41h-1.1v-3.35c0-.99-.61-1.62-1.43-1.62s-1.81.49-1.81,1.77v3.2h-1.1v-9.11h1.1v4.1c.35-.72,1.31-1.05,1.96-1.05,1.46,0,2.39.99,2.37,2.64Z" style="fill:#fff;"/><path d="M482.02,324.14h-4.8c.16,1.05.92,1.59,1.93,1.59.72,0,1.38-.33,1.72-.92l.95.38c-.51,1.02-1.57,1.58-2.7,1.58-1.68,0-3.03-1.25-3.03-3.12s1.35-3.08,3.03-3.08,2.93,1.21,2.93,3.08c0,.16-.01.33-.03.49ZM480.94,323.19c-.14-1.01-.86-1.59-1.83-1.59s-1.7.53-1.88,1.59h3.71Z" style="fill:#fff;"/><path d="M355.69,337.44c0-2.46,1.96-4.52,4.42-4.52,1.34,0,2.5.57,3.27,1.48l-.83.71c-.58-.68-1.47-1.12-2.44-1.12-1.83,0-3.27,1.59-3.27,3.46s1.44,3.42,3.27,3.42c.97,0,1.86-.44,2.44-1.12l.83.71c-.77.91-1.93,1.48-3.27,1.48-2.46,0-4.42-2.02-4.42-4.48Z" style="fill:#fff;"/><path d="M364.28,338.81c0-1.87,1.4-3.09,3.08-3.09s3.09,1.23,3.09,3.09-1.41,3.11-3.09,3.11-3.08-1.24-3.08-3.11ZM369.36,338.81c0-1.21-.91-2.06-2-2.06s-1.97.85-1.97,2.06.9,2.07,1.97,2.07,2-.85,2-2.07Z" style="fill:#fff;"/><path d="M377.41,338.36v3.41h-1.1v-3.35c0-.99-.61-1.62-1.43-1.62s-1.81.49-1.81,1.77v3.2h-1.1v-5.9h1.1v.9c.35-.72,1.31-1.05,1.96-1.05,1.46,0,2.39.99,2.37,2.64Z" style="fill:#fff;"/><path d="M378.84,338.81c0-1.87,1.4-3.09,3.08-3.09s3.1,1.23,3.1,3.09-1.41,3.11-3.1,3.11-3.08-1.24-3.08-3.11ZM383.92,338.81c0-1.21-.91-2.06-2-2.06s-1.97.85-1.97,2.06.9,2.07,1.97,2.07,2-.85,2-2.07Z" style="fill:#fff;"/><path d="M386.08,340.04h1.02c.01.5.45.92,1.17.92s1.19-.37,1.19-.85c0-.44-.34-.67-.81-.77l-.81-.19c-.99-.27-1.55-.75-1.55-1.69s.83-1.74,2.02-1.74c1,0,2.03.53,2.03,1.72h-1.06c-.01-.45-.48-.76-.95-.76-.57,0-.95.37-.95.82,0,.4.38.62.76.71l.87.21c1.23.3,1.54,1.04,1.54,1.71,0,1.1-1.06,1.79-2.29,1.79-1.06,0-2.15-.67-2.2-1.88Z" style="fill:#fff;"/><path d="M391.62,338.81c0-1.87,1.48-3.09,3.17-3.09.92,0,1.73.37,2.25.93l-.69.72c-.37-.38-.9-.62-1.52-.62-1.16,0-2.1.85-2.1,2.06s.93,2.07,2.1,2.07c.62,0,1.15-.24,1.52-.62l.69.72c-.52.58-1.33.93-2.25.93-1.69,0-3.17-1.24-3.17-3.11Z" style="fill:#fff;"/><path d="M403.82,339.29h-4.8c.16,1.05.92,1.59,1.93,1.59.72,0,1.38-.33,1.72-.92l.95.38c-.51,1.02-1.57,1.58-2.7,1.58-1.68,0-3.03-1.25-3.03-3.12s1.35-3.08,3.03-3.08,2.93,1.21,2.93,3.08c0,.16-.01.33-.03.49ZM402.75,338.35c-.14-1.01-.86-1.59-1.83-1.59s-1.71.53-1.88,1.59h3.71Z" style="fill:#fff;"/><path d="M410.78,338.36v3.41h-1.1v-3.35c0-.99-.61-1.62-1.43-1.62s-1.81.49-1.81,1.77v3.2h-1.1v-5.9h1.1v.9c.35-.72,1.31-1.05,1.96-1.05,1.47,0,2.39.99,2.37,2.64Z" style="fill:#fff;"/><path d="M417.34,335.87v.91l-3.64,3.95h3.64v1.04h-5.18v-.91l3.57-3.95h-3.38v-1.04h4.99Z" style="fill:#fff;"/><path d="M423.44,335.87h1.1v5.9h-1.1v-1.05c-.39.71-1.21,1.2-2.16,1.2-1.54,0-2.89-1.3-2.89-3.11s1.28-3.09,2.94-3.09c.88,0,1.72.38,2.11,1.07v-.92ZM423.44,338.81c0-1.21-1.02-2.06-2.01-2.06-1.07,0-1.93.95-1.93,2.06s.86,2.07,1.95,2.07,1.99-.87,1.99-2.07Z" style="fill:#fff;"/><path d="M434.31,332.66h1.1v9.11h-1.1v-.92c-.39.67-1.25,1.07-2.1,1.07-1.62,0-2.96-1.25-2.96-3.11s1.33-3.09,2.94-3.09c.88,0,1.72.38,2.11,1.07v-4.13ZM434.31,338.8c0-1.28-1.04-2.05-2.01-2.05-1.07,0-1.93.86-1.93,2.05s.86,2.08,1.93,2.08,2.01-.82,2.01-2.08Z" style="fill:#fff;"/><path d="M437.1,333.7c0-.42.35-.73.77-.73s.78.32.78.73-.35.73-.78.73-.77-.32-.77-.73ZM437.33,341.77v-5.9h1.1v5.9h-1.1Z" style="fill:#fff;"/><path d="M452.82,338.36v3.41h-1.1v-3.35c0-.99-.54-1.64-1.4-1.64-1.05-.01-1.59.72-1.59,2.03v2.96h-1.1v-3.35c0-1-.54-1.64-1.33-1.64-.83,0-1.67.54-1.67,1.79v3.2h-1.1v-5.9h1.1v.91c.29-.64,1.06-1.06,1.89-1.06s1.6.45,1.95,1.26c.54-1.06,1.46-1.26,2.06-1.26,1.48,0,2.29.99,2.29,2.64Z" style="fill:#fff;"/><path d="M460.19,339.29h-4.8c.16,1.05.92,1.59,1.93,1.59.72,0,1.38-.33,1.72-.92l.95.38c-.51,1.02-1.57,1.58-2.7,1.58-1.68,0-3.03-1.25-3.03-3.12s1.35-3.08,3.03-3.08,2.93,1.21,2.93,3.08c0,.16-.01.33-.03.49ZM459.12,338.35c-.14-1.01-.86-1.59-1.83-1.59s-1.7.53-1.88,1.59h3.71Z" style="fill:#fff;"/><path d="M464.46,335.87v.95h-1.28v4.95h-1.1v-4.95h-1.06v-.95h1.06v-2.22h1.1v2.22h1.28Z" style="fill:#fff;"/><path d="M465.16,338.81c0-1.87,1.4-3.09,3.08-3.09s3.09,1.23,3.09,3.09-1.41,3.11-3.09,3.11-3.08-1.24-3.08-3.11ZM470.23,338.81c0-1.21-.91-2.06-2-2.06s-1.97.85-1.97,2.06.9,2.07,1.97,2.07,2-.85,2-2.07Z" style="fill:#fff;"/><path d="M477.52,332.66h1.1v9.11h-1.1v-.92c-.39.67-1.25,1.07-2.1,1.07-1.62,0-2.96-1.25-2.96-3.11s1.33-3.09,2.94-3.09c.88,0,1.72.38,2.11,1.07v-4.13ZM477.52,338.8c0-1.28-1.04-2.05-2.01-2.05-1.07,0-1.93.86-1.93,2.05s.86,2.08,1.93,2.08,2.01-.82,2.01-2.08Z" style="fill:#fff;"/><path d="M480.31,333.7c0-.42.35-.73.77-.73s.78.32.78.73-.35.73-.78.73-.77-.32-.77-.73ZM480.54,341.77v-5.9h1.1v5.9h-1.1Z" style="fill:#fff;"/><path d="M314.01,199.15c0-2.46,1.96-4.52,4.42-4.52,1.34,0,2.5.57,3.27,1.48l-.83.71c-.58-.68-1.47-1.12-2.44-1.12-1.83,0-3.27,1.59-3.27,3.46s1.44,3.42,3.27,3.42c.97,0,1.86-.44,2.44-1.12l.83.71c-.77.91-1.93,1.48-3.27,1.48-2.46,0-4.42-2.02-4.42-4.48Z" style="fill:#fff;"/><path d="M322.6,200.53c0-1.87,1.4-3.09,3.08-3.09s3.1,1.22,3.1,3.09-1.41,3.11-3.1,3.11-3.08-1.24-3.08-3.11ZM327.68,200.53c0-1.21-.91-2.06-2-2.06s-1.97.85-1.97,2.06.9,2.07,1.97,2.07,2-.85,2-2.07Z" style="fill:#fff;"/><path d="M339.59,200.07v3.41h-1.1v-3.35c0-.99-.54-1.64-1.4-1.64-1.05-.01-1.59.72-1.59,2.03v2.96h-1.1v-3.35c0-1-.54-1.64-1.33-1.64-.83,0-1.67.54-1.67,1.79v3.2h-1.1v-5.9h1.1v.91c.29-.64,1.06-1.06,1.89-1.06s1.6.45,1.95,1.26c.54-1.06,1.46-1.26,2.06-1.26,1.48,0,2.29.99,2.29,2.64Z" style="fill:#fff;"/><path d="M347.57,200.54c0,1.87-1.33,3.09-2.94,3.09-.88,0-1.72-.38-2.11-1.07v3.79h-1.1v-8.77h1.1v.92c.39-.67,1.25-1.07,2.1-1.07,1.62,0,2.96,1.25,2.96,3.11ZM346.46,200.55c0-1.17-.86-2.08-1.94-2.08s-2,.82-2,2.08,1.04,2.05,2,2.05c1.09,0,1.94-.86,1.94-2.05Z" style="fill:#fff;"/><path d="M348.69,200.53c0-1.87,1.4-3.09,3.08-3.09s3.09,1.22,3.09,3.09-1.41,3.11-3.09,3.11-3.08-1.24-3.08-3.11ZM353.77,200.53c0-1.21-.91-2.06-1.99-2.06s-1.97.85-1.97,2.06.9,2.07,1.97,2.07,1.99-.85,1.99-2.07Z" style="fill:#fff;"/><path d="M360.19,197.66l-.18,1.04c-.32-.15-.63-.2-.86-.2-1.18,0-1.64,1.28-1.64,2.83v2.16h-1.11v-5.9h1.11v1.34c.3-1.04.87-1.49,1.65-1.49.42,0,.85.11,1.02.23Z" style="fill:#fff;"/><path d="M364.12,197.58v.95h-1.28v4.95h-1.1v-4.95h-1.06v-.95h1.06v-2.22h1.1v2.22h1.28Z" style="fill:#fff;"/><path d="M369.86,197.58h1.1v5.9h-1.1v-1.05c-.39.71-1.21,1.2-2.16,1.2-1.54,0-2.89-1.3-2.89-3.11s1.28-3.09,2.94-3.09c.88,0,1.72.38,2.11,1.07v-.92ZM369.86,200.53c0-1.21-1.02-2.06-2.01-2.06-1.07,0-1.93.95-1.93,2.06s.86,2.07,1.95,2.07,1.99-.87,1.99-2.07Z" style="fill:#fff;"/><path d="M382.16,200.07v3.41h-1.1v-3.35c0-.99-.54-1.64-1.4-1.64-1.05-.01-1.59.72-1.59,2.03v2.96h-1.1v-3.35c0-1-.54-1.64-1.33-1.64-.83,0-1.67.54-1.67,1.79v3.2h-1.1v-5.9h1.1v.91c.29-.64,1.06-1.06,1.89-1.06s1.6.45,1.95,1.26c.54-1.06,1.46-1.26,2.06-1.26,1.48,0,2.29.99,2.29,2.64Z" style="fill:#fff;"/><path d="M389.54,201.01h-4.8c.16,1.05.92,1.59,1.93,1.59.72,0,1.38-.33,1.72-.92l.95.38c-.5,1.02-1.57,1.58-2.7,1.58-1.68,0-3.03-1.25-3.03-3.12s1.35-3.08,3.03-3.08,2.93,1.21,2.93,3.08c0,.16-.01.33-.02.49ZM388.47,200.06c-.14-1.01-.86-1.59-1.83-1.59s-1.7.53-1.88,1.59h3.71Z" style="fill:#fff;"/><path d="M396.5,200.07v3.41h-1.1v-3.35c0-.99-.61-1.62-1.43-1.62s-1.81.49-1.81,1.77v3.2h-1.1v-5.9h1.1v.9c.35-.72,1.31-1.05,1.96-1.05,1.47,0,2.39.99,2.37,2.64Z" style="fill:#fff;"/><path d="M401.08,197.58v.95h-1.27v4.95h-1.1v-4.95h-1.06v-.95h1.06v-2.22h1.1v2.22h1.27Z" style="fill:#fff;"/><path d="M402.08,195.41c0-.42.35-.73.77-.73s.78.32.78.73-.35.73-.78.73-.77-.32-.77-.73ZM402.31,203.48v-5.9h1.1v5.9h-1.1Z" style="fill:#fff;"/><path d="M326.57,209.94c2.48,0,3.93,1.89,3.93,4.37s-1.45,4.33-3.93,4.33h-3.37v-8.7h3.37ZM326.57,217.58c1.83,0,2.78-1.41,2.78-3.27s-.95-3.31-2.78-3.31h-2.22v6.58h2.22Z" style="fill:#fff;"/><path d="M331.82,210.57c0-.42.35-.73.77-.73s.78.32.78.73-.35.73-.78.73-.77-.32-.77-.73ZM332.05,218.64v-5.9h1.1v5.9h-1.1Z" style="fill:#fff;"/><path d="M334.59,216.91h1.02c.01.5.45.92,1.18.92s1.19-.37,1.19-.85c0-.44-.34-.67-.81-.77l-.81-.19c-.99-.27-1.55-.75-1.55-1.69s.83-1.74,2.02-1.74c1,0,2.03.53,2.03,1.72h-1.06c-.01-.45-.48-.76-.95-.76-.57,0-.95.37-.95.82,0,.4.38.62.76.71l.87.22c1.23.3,1.54,1.04,1.54,1.71,0,1.1-1.06,1.79-2.29,1.79-1.06,0-2.15-.67-2.2-1.88Z" style="fill:#fff;"/><path d="M343.44,210.57c-1.05,0-1.33.64-1.31,1.41v.76h1.38v.95h-1.38v4.95h-1.1v-4.95h-1.14v-.95h1.14v-.61c0-1.54.64-2.6,2.22-2.6h.63v1.04h-.44Z" style="fill:#fff;"/><path d="M348.96,212.74h1.1v5.9h-1.1v-.92c-.35.75-1.3,1.07-1.96,1.07-1.48,0-2.39-.99-2.37-2.64v-3.41h1.1v3.39c0,1,.59,1.63,1.41,1.63s1.81-.49,1.82-1.77v-3.25Z" style="fill:#fff;"/><path d="M357.4,215.23v3.41h-1.1v-3.35c0-.99-.61-1.62-1.43-1.62s-1.81.49-1.81,1.77v3.2h-1.1v-5.9h1.1v.9c.35-.72,1.31-1.05,1.96-1.05,1.46,0,2.39.99,2.37,2.64Z" style="fill:#fff;"/><path d="M363.95,212.74v.91l-3.64,3.95h3.64v1.04h-5.18v-.91l3.57-3.95h-3.38v-1.04h4.99Z" style="fill:#fff;"/><path d="M365.26,210.57c0-.42.35-.73.77-.73s.78.32.78.73-.35.73-.78.73-.77-.32-.77-.73ZM365.49,218.64v-5.9h1.1v5.9h-1.1Z" style="fill:#fff;"/><path d="M368.09,215.68c0-1.87,1.4-3.09,3.08-3.09s3.1,1.22,3.1,3.09-1.41,3.11-3.1,3.11-3.08-1.24-3.08-3.11ZM373.17,215.68c0-1.21-.91-2.06-2-2.06s-1.97.85-1.97,2.06.9,2.07,1.97,2.07,2-.85,2-2.07Z" style="fill:#fff;"/><path d="M381.23,215.23v3.41h-1.1v-3.35c0-.99-.61-1.62-1.43-1.62s-1.81.49-1.81,1.77v3.2h-1.1v-5.9h1.1v.9c.35-.72,1.31-1.05,1.96-1.05,1.46,0,2.39.99,2.37,2.64Z" style="fill:#fff;"/><path d="M387.71,212.74h1.1v5.9h-1.1v-1.05c-.39.71-1.21,1.2-2.16,1.2-1.54,0-2.89-1.3-2.89-3.11s1.28-3.09,2.94-3.09c.88,0,1.72.38,2.11,1.07v-.92ZM387.71,215.68c0-1.21-1.02-2.06-2.01-2.06-1.07,0-1.93.95-1.93,2.06s.86,2.07,1.95,2.07,1.99-.87,1.99-2.07Z" style="fill:#fff;"/><path d="M390.73,218.64v-9.11h1.1v9.11h-1.1Z" style="fill:#fff;"/><path d="M393.51,210.57c0-.42.35-.73.77-.73s.78.32.78.73-.35.73-.78.73-.77-.32-.77-.73ZM393.73,218.64v-5.9h1.1v5.9h-1.1Z" style="fill:#fff;"/><path d="M257.21,342.33v1.06h-2.65v7.64h-1.15v-7.64h-2.65v-1.06h6.46Z" style="fill:#fff;"/><path d="M261.04,345.2l-.18,1.04c-.32-.15-.63-.2-.86-.2-1.17,0-1.64,1.28-1.64,2.83v2.16h-1.11v-5.9h1.11v1.34c.3-1.04.87-1.49,1.65-1.49.42,0,.85.11,1.02.23Z" style="fill:#fff;"/><path d="M266.59,345.13h1.1v5.9h-1.1v-1.05c-.39.71-1.21,1.2-2.16,1.2-1.54,0-2.89-1.3-2.89-3.11s1.28-3.09,2.94-3.09c.88,0,1.72.38,2.11,1.07v-.92ZM266.59,348.07c0-1.21-1.02-2.06-2.01-2.06-1.07,0-1.93.95-1.93,2.06s.86,2.07,1.95,2.07,1.99-.87,1.99-2.07Z" style="fill:#fff;"/><path d="M274.27,345.13h1.1v5.08c0,2.79-1.26,3.84-3.21,3.84-1.07,0-2.07-.54-2.65-1.58l.93-.49c.37.67,1.06,1.04,1.72,1.04,1.3,0,2.11-.73,2.11-2.73v-.18c-.39.67-1.25,1.07-2.1,1.07-1.62,0-2.96-1.25-2.96-3.11s1.33-3.09,2.94-3.09c.88,0,1.72.39,2.11,1.07v-.92ZM274.27,348.06c0-1.28-1.04-2.05-2.01-2.05-1.07,0-1.93.86-1.93,2.05s.86,2.08,1.93,2.08,2.01-.82,2.01-2.08Z" style="fill:#fff;"/><path d="M281.54,345.13h1.1v5.9h-1.1v-.92c-.35.75-1.3,1.07-1.96,1.07-1.48,0-2.39-.99-2.37-2.64v-3.41h1.1v3.39c0,1,.59,1.63,1.41,1.63s1.81-.49,1.82-1.77v-3.25Z" style="fill:#fff;"/><path d="M289.19,345.13h1.1v5.9h-1.1v-1.05c-.39.71-1.21,1.2-2.16,1.2-1.54,0-2.89-1.3-2.89-3.11s1.28-3.09,2.94-3.09c.88,0,1.72.38,2.11,1.07v-.92ZM289.19,348.07c0-1.21-1.02-2.06-2.01-2.06-1.07,0-1.93.95-1.93,2.06s.86,2.07,1.95,2.07,1.99-.87,1.99-2.07Z" style="fill:#fff;"/><path d="M296,345.2l-.18,1.04c-.32-.15-.63-.2-.86-.2-1.17,0-1.64,1.28-1.64,2.83v2.16h-1.11v-5.9h1.11v1.34c.3-1.04.87-1.49,1.65-1.49.42,0,.85.11,1.02.23Z" style="fill:#fff;"/><path d="M301.56,341.92h1.1v9.11h-1.1v-.92c-.39.67-1.25,1.07-2.1,1.07-1.62,0-2.96-1.25-2.96-3.11s1.33-3.09,2.94-3.09c.88,0,1.72.38,2.11,1.07v-4.13ZM301.56,348.06c0-1.28-1.04-2.05-2.01-2.05-1.07,0-1.93.86-1.93,2.05s.86,2.08,1.93,2.08,2.01-.82,2.01-2.08Z" style="fill:#fff;"/><path d="M304.17,348.07c0-1.87,1.4-3.09,3.08-3.09s3.09,1.23,3.09,3.09-1.41,3.11-3.09,3.11-3.08-1.24-3.08-3.11ZM309.25,348.07c0-1.21-.91-2.06-1.99-2.06s-1.97.85-1.97,2.06.9,2.07,1.97,2.07,1.99-.85,1.99-2.07Z" style="fill:#fff;"/><path d="M261.87,357.48c1.84,0,2.59,1.36,2.59,2.72s-.75,2.72-2.59,2.72h-2.31v3.27h-1.15v-8.7h3.46ZM261.79,361.84c1.09,0,1.51-.81,1.51-1.64s-.42-1.65-1.45-1.65h-2.3v3.3h2.24Z" style="fill:#fff;"/><path d="M270.27,360.28h1.1v5.9h-1.1v-1.05c-.39.71-1.21,1.2-2.16,1.2-1.54,0-2.89-1.3-2.89-3.11s1.28-3.09,2.94-3.09c.88,0,1.72.38,2.11,1.07v-.92ZM270.27,363.23c0-1.21-1.02-2.06-2.01-2.06-1.07,0-1.93.95-1.93,2.06s.86,2.07,1.94,2.07,2-.87,2-2.07Z" style="fill:#fff;"/><path d="M277.07,360.36l-.18,1.04c-.32-.15-.63-.2-.86-.2-1.18,0-1.64,1.28-1.64,2.83v2.16h-1.11v-5.9h1.11v1.34c.3-1.04.87-1.49,1.65-1.49.42,0,.85.11,1.02.23Z" style="fill:#fff;"/><path d="M282.9,360.28v.91l-3.64,3.95h3.64v1.04h-5.18v-.91l3.57-3.95h-3.38v-1.04h4.99Z" style="fill:#fff;"/><path d="M284.21,358.11c0-.42.35-.73.77-.73s.78.32.78.73-.35.73-.78.73-.77-.32-.77-.73ZM284.44,366.18v-5.9h1.1v5.9h-1.1Z" style="fill:#fff;"/><path d="M292.09,360.28h1.1v5.9h-1.1v-1.05c-.39.71-1.21,1.2-2.16,1.2-1.54,0-2.89-1.3-2.89-3.11s1.27-3.09,2.94-3.09c.88,0,1.72.38,2.11,1.07v-.92ZM292.09,363.23c0-1.21-1.02-2.06-2.01-2.06-1.07,0-1.93.95-1.93,2.06s.86,2.07,1.94,2.07,2-.87,2-2.07Z" style="fill:#fff;"/><path d="M295.11,366.18v-9.11h1.1v9.11h-1.1Z" style="fill:#fff;"/><path d="M303.66,363.71h-4.8c.16,1.05.92,1.59,1.93,1.59.72,0,1.38-.33,1.72-.92l.95.38c-.51,1.02-1.57,1.58-2.7,1.58-1.68,0-3.03-1.25-3.03-3.12s1.35-3.08,3.03-3.08,2.93,1.21,2.93,3.08c0,.16-.01.33-.03.49ZM302.59,362.76c-.14-1.01-.86-1.59-1.83-1.59s-1.71.53-1.88,1.59h3.71Z" style="fill:#fff;"/><path d="M180.49,504.72h11.42v4.65h-16.68v-26.05h16.33v4.65h-11.08v6.2h9.72v4.73h-9.72v5.82Z" style="fill:#fff;"/><path d="M194.71,500.48c0-5.6,4.54-9.23,9.68-9.23,3.22,0,5.79,1.48,7.45,3.78l-3.74,2.61c-.79-1.1-2.27-1.78-3.67-1.78-2.8,0-4.69,2.04-4.69,4.61s1.89,4.73,4.69,4.73c1.4,0,2.87-.68,3.67-1.78l3.74,2.61c-1.66,2.31-4.23,3.78-7.45,3.78-5.14,0-9.68-3.74-9.68-9.34Z" style="fill:#fff;"/><path d="M213.99,500.56c0-5.6,4.46-9.3,9.49-9.3s9.49,3.71,9.49,9.3-4.46,9.26-9.49,9.26-9.49-3.71-9.49-9.26ZM227.94,500.56c0-2.76-2-4.69-4.46-4.69s-4.46,1.93-4.46,4.69,2,4.65,4.46,4.65,4.46-1.93,4.46-4.65Z" style="fill:#fff;"/><path d="M235.77,503.81h4.65c0,1.02.87,2.12,2.61,2.12,1.44,0,2.53-.72,2.53-1.74,0-.76-.6-1.14-1.93-1.48l-2.34-.57c-4.54-1.21-5.14-3.74-5.14-5.6,0-2.72,2.84-5.29,6.92-5.29,3.21,0,7,1.55,6.96,5.75h-4.73c0-1.21-.98-1.85-2.16-1.85s-2.04.64-2.04,1.55c0,.83.76,1.25,1.74,1.51l2.91.76c4.24,1.13,4.76,3.78,4.76,5.22,0,3.7-3.78,5.63-7.41,5.63s-7.3-2.12-7.34-6.01Z" style="fill:#fff;"/><path d="M253.73,485.62c0-1.66,1.44-2.95,3.14-2.95s3.14,1.28,3.14,2.95-1.4,2.99-3.14,2.99-3.14-1.32-3.14-2.99ZM254.41,509.37v-17.66h4.95v17.66h-4.95Z" style="fill:#fff;"/><path d="M263.25,503.81h4.65c0,1.02.87,2.12,2.61,2.12,1.44,0,2.53-.72,2.53-1.74,0-.76-.6-1.14-1.93-1.48l-2.34-.57c-4.54-1.21-5.14-3.74-5.14-5.6,0-2.72,2.84-5.29,6.92-5.29,3.21,0,7,1.55,6.96,5.75h-4.73c0-1.21-.98-1.85-2.16-1.85s-2.04.64-2.04,1.55c0,.83.76,1.25,1.74,1.51l2.91.76c4.24,1.13,4.76,3.78,4.76,5.22,0,3.7-3.78,5.63-7.41,5.63s-7.3-2.12-7.34-6.01Z" style="fill:#fff;"/><path d="M292.18,491.71v3.86h-3.74v13.8h-4.95v-13.8h-3.21v-3.86h3.21v-6.43h4.95v6.43h3.74Z" style="fill:#fff;"/><path d="M312.37,502.15h-13.27c.53,2.08,2.19,3.29,4.54,3.29,1.81,0,3.55-.83,4.65-2.08l2.87,2.91c-1.66,2.23-4.73,3.55-7.83,3.55-5.44,0-9.42-3.82-9.42-9.26s4.35-9.3,9.38-9.3,9.19,3.59,9.19,9c0,.49-.04,1.1-.11,1.89ZM307.49,498.93c-.15-2.08-1.85-3.4-4.08-3.4-2.04,0-3.78,1.02-4.31,3.4h8.4Z" style="fill:#fff;"/><path d="M344.55,499.69v9.68h-4.99v-9.53c0-2.76-1.44-3.93-3.18-3.93-2.12-.04-3.48,1.48-3.48,4.76v8.7h-4.95v-9.45c0-2.8-1.44-4.01-3.1-4.01-1.78,0-3.59.98-3.59,4.16v9.3h-4.95v-17.66h4.95v2.84c.72-2.19,3.1-3.29,4.99-3.29,2.61,0,4.61,1.25,5.67,3.48,1.29-2.57,4.05-3.48,5.9-3.48,4.42,0,6.73,3.14,6.73,8.43Z" style="fill:#fff;"/><path d="M362.54,491.71h4.95v17.66h-4.95v-2.53c-1.17,1.82-3.44,2.99-5.82,2.99-4.88,0-8.51-3.78-8.51-9.26s3.55-9.3,8.62-9.3c2.27,0,4.54.98,5.71,2.8v-2.34ZM362.39,500.56c0-2.68-2.16-4.69-4.61-4.69s-4.5,2.12-4.5,4.69,1.93,4.65,4.54,4.65,4.58-2.12,4.58-4.65Z" style="fill:#fff;"/></svg>