<?xml version="1.0" encoding="UTF-8"?><svg id="uuid-1c2d9944-f674-482b-b022-b230eb58f82c" xmlns="http://www.w3.org/2000/svg" viewBox="0 0 518.7 459.88"><circle cx="259.35" cy="163.49" r="163.49" style="fill:#00bc7d; opacity:.45;"/><circle cx="163.49" cy="296.39" r="163.49" style="fill:#00bc7d; opacity:.45;"/><circle cx="355.21" cy="296.39" r="163.49" style="fill:#00bc7d; opacity:0;"/><g style="opacity:0;"><path d="M216,260.86h7.25v2.95h-10.58v-16.54h10.37v2.95h-7.03v3.94h6.17v3h-6.17v3.7Z" style="fill:#fff;"/><path d="M246.46,252.6v11.21h-3.14v-8.76h-4.56v8.76h-3.14v-8.76h-5.66v8.76h-3.14v-8.76h-2.11v-2.45h2.11v-.82c0-3.36,1.73-5.28,4.92-5.28h1.34v2.93h-.72c-1.8,0-2.38.98-2.4,2.33v.84h5.66v-.82c0-3.36,1.73-5.28,4.92-5.28h.65v2.93h-.46c-1.49,0-1.97.89-1.97,2.11v1.06h7.7ZM242.89,248.74c0-1.06.91-1.87,1.99-1.87s1.99.82,1.99,1.87-.86,1.9-1.99,1.9-1.99-.84-1.99-1.9Z" style="fill:#fff;"/><path d="M248.93,258.17c0-3.55,2.88-5.86,6.14-5.86,2.04,0,3.67.94,4.73,2.4l-2.38,1.66c-.5-.7-1.44-1.13-2.33-1.13-1.78,0-2.98,1.3-2.98,2.93s1.2,3,2.98,3c.89,0,1.82-.43,2.33-1.13l2.38,1.66c-1.06,1.46-2.69,2.4-4.73,2.4-3.26,0-6.14-2.38-6.14-5.93Z" style="fill:#fff;"/><path d="M270.29,252.6h3.14v11.21h-3.14v-1.61c-.74,1.15-2.18,1.9-3.7,1.9-3.1,0-5.4-2.4-5.4-5.88s2.26-5.9,5.47-5.9c1.44,0,2.88.62,3.62,1.78v-1.49ZM270.2,258.22c0-1.7-1.37-2.98-2.93-2.98s-2.86,1.34-2.86,2.98,1.22,2.95,2.88,2.95,2.9-1.34,2.9-2.95Z" style="fill:#fff;"/><path d="M275.91,258.17c0-3.55,2.88-5.86,6.14-5.86,2.04,0,3.67.94,4.73,2.4l-2.38,1.66c-.5-.7-1.44-1.13-2.33-1.13-1.78,0-2.98,1.3-2.98,2.93s1.2,3,2.98,3c.89,0,1.82-.43,2.33-1.13l2.38,1.66c-1.06,1.46-2.69,2.4-4.73,2.4-3.26,0-6.14-2.38-6.14-5.93Z" style="fill:#fff;"/><path d="M288.6,248.74c0-1.06.91-1.87,1.99-1.87s1.99.82,1.99,1.87-.89,1.9-1.99,1.9-1.99-.84-1.99-1.9ZM289.04,263.81v-11.21h3.14v11.21h-3.14Z" style="fill:#fff;"/><path d="M303.77,252.6h3.14v11.21h-3.14v-1.61c-.74,1.15-2.18,1.9-3.7,1.9-3.1,0-5.4-2.4-5.4-5.88s2.26-5.9,5.47-5.9c1.44,0,2.88.62,3.62,1.78v-1.49ZM303.68,258.22c0-1.7-1.37-2.98-2.93-2.98s-2.86,1.34-2.86,2.98,1.22,2.95,2.88,2.95,2.9-1.34,2.9-2.95Z" style="fill:#fff;"/><path d="M230.15,287.81h-3.41l-1.2-10.25-4.03,8.38h-2.62l-4.08-8.38-1.2,10.25h-3.41l2.04-16.54h2.83l5.11,10.85,5.06-10.85h2.88l2.02,16.54Z" style="fill:#fff;"/><path d="M241.1,276.6h3.14v11.21h-3.14v-1.61c-.74,1.15-2.18,1.9-3.7,1.9-3.1,0-5.4-2.4-5.4-5.88s2.26-5.9,5.47-5.9c1.44,0,2.88.62,3.62,1.78v-1.49ZM241,282.22c0-1.7-1.37-2.98-2.93-2.98s-2.86,1.34-2.86,2.98,1.22,2.95,2.88,2.95,2.9-1.34,2.9-2.95Z" style="fill:#fff;"/><path d="M246.71,284.29h2.95c0,.65.55,1.34,1.66,1.34.91,0,1.61-.46,1.61-1.1,0-.48-.38-.72-1.22-.94l-1.49-.36c-2.88-.77-3.26-2.38-3.26-3.55,0-1.73,1.8-3.36,4.39-3.36,2.04,0,4.44.98,4.42,3.65h-3c0-.77-.62-1.18-1.37-1.18s-1.3.41-1.3.98c0,.53.48.79,1.1.96l1.85.48c2.69.72,3.02,2.4,3.02,3.31,0,2.35-2.4,3.58-4.7,3.58s-4.63-1.34-4.66-3.82Z" style="fill:#fff;"/><path d="M257.85,284.29h2.95c0,.65.55,1.34,1.66,1.34.91,0,1.61-.46,1.61-1.1,0-.48-.38-.72-1.22-.94l-1.49-.36c-2.88-.77-3.26-2.38-3.26-3.55,0-1.73,1.8-3.36,4.39-3.36,2.04,0,4.44.98,4.42,3.65h-3c0-.77-.62-1.18-1.37-1.18s-1.3.41-1.3.98c0,.53.48.79,1.1.96l1.85.48c2.69.72,3.02,2.4,3.02,3.31,0,2.35-2.4,3.58-4.7,3.58s-4.63-1.34-4.66-3.82Z" style="fill:#fff;"/><path d="M269.25,272.74c0-1.06.91-1.87,1.99-1.87s1.99.82,1.99,1.87-.89,1.9-1.99,1.9-1.99-.84-1.99-1.9ZM269.68,287.81v-11.21h3.14v11.21h-3.14Z" style="fill:#fff;"/><path d="M293.92,281.67v6.14h-3.17v-6.05c0-1.75-.91-2.5-2.02-2.5-1.34-.02-2.21.94-2.21,3.02v5.52h-3.14v-6c0-1.78-.91-2.54-1.97-2.54-1.13,0-2.28.62-2.28,2.64v5.9h-3.14v-11.21h3.14v1.8c.46-1.39,1.97-2.09,3.17-2.09,1.66,0,2.93.79,3.6,2.21.82-1.63,2.57-2.21,3.74-2.21,2.81,0,4.27,1.99,4.27,5.35Z" style="fill:#fff;"/><path d="M305.34,276.6h3.14v11.21h-3.14v-1.61c-.74,1.15-2.18,1.9-3.7,1.9-3.1,0-5.4-2.4-5.4-5.88s2.26-5.9,5.47-5.9c1.44,0,2.88.62,3.62,1.78v-1.49ZM305.25,282.22c0-1.7-1.37-2.98-2.93-2.98s-2.86,1.34-2.86,2.98,1.22,2.95,2.88,2.95,2.9-1.34,2.9-2.95Z" style="fill:#fff;"/></g><path d="M208.88,67.22c3.74,0,5.4,2.69,5.4,5.4s-1.66,5.35-5.4,5.35h-3.41v5.78h-3.34v-16.54h6.74ZM208.71,75.05c1.61,0,2.21-1.25,2.21-2.42s-.6-2.45-2.16-2.45h-3.29v4.87h3.24Z" style="fill:#fff;"/><path d="M215.31,78.17c0-3.55,2.83-5.9,6.02-5.9s6.02,2.35,6.02,5.9-2.83,5.88-6.02,5.88-6.02-2.35-6.02-5.88ZM224.17,78.17c0-1.75-1.27-2.98-2.83-2.98s-2.83,1.22-2.83,2.98,1.27,2.95,2.83,2.95,2.83-1.22,2.83-2.95Z" style="fill:#fff;"/><path d="M236.22,72.55v2.45h-2.38v8.76h-3.14v-8.76h-2.04v-2.45h2.04v-4.08h3.14v4.08h2.38Z" style="fill:#fff;"/><path d="M249.03,79.18h-8.42c.34,1.32,1.39,2.09,2.88,2.09,1.15,0,2.26-.53,2.95-1.32l1.82,1.85c-1.06,1.42-3,2.26-4.97,2.26-3.46,0-5.98-2.42-5.98-5.88s2.76-5.9,5.95-5.9,5.83,2.28,5.83,5.71c0,.31-.02.7-.07,1.2ZM245.94,77.14c-.1-1.32-1.18-2.16-2.59-2.16-1.3,0-2.4.65-2.74,2.16h5.33Z" style="fill:#fff;"/><path d="M262.47,77.62v6.14h-3.14v-5.98c0-1.75-1.06-2.54-2.14-2.54s-2.52.6-2.52,2.64v5.88h-3.14v-11.21h3.14v1.82c.53-1.46,2.28-2.11,3.36-2.11,2.93,0,4.46,1.99,4.44,5.35Z" style="fill:#fff;"/><path d="M274.95,72.55v2.4l-5.59,5.88h5.59v2.93h-10.08v-2.38l5.47-5.9h-5.14v-2.93h9.75Z" style="fill:#fff;"/><path d="M277.21,68.69c0-1.06.91-1.87,1.99-1.87s1.99.82,1.99,1.87-.89,1.9-1.99,1.9-1.99-.84-1.99-1.9ZM277.64,83.76v-11.21h3.14v11.21h-3.14Z" style="fill:#fff;"/><path d="M292.38,72.55h3.14v11.21h-3.14v-1.61c-.74,1.15-2.18,1.9-3.7,1.9-3.1,0-5.4-2.4-5.4-5.88s2.26-5.9,5.47-5.9c1.44,0,2.88.62,3.62,1.78v-1.49ZM292.28,78.17c0-1.7-1.37-2.98-2.93-2.98s-2.86,1.34-2.86,2.98,1.22,2.95,2.88,2.95,2.9-1.34,2.9-2.95Z" style="fill:#fff;"/><path d="M298.69,83.76v-17.31h3.14v17.31h-3.14Z" style="fill:#fff;"/><path d="M316.04,79.18h-8.42c.34,1.32,1.39,2.09,2.88,2.09,1.15,0,2.26-.53,2.95-1.32l1.82,1.85c-1.06,1.42-3,2.26-4.97,2.26-3.46,0-5.98-2.42-5.98-5.88s2.76-5.9,5.95-5.9,5.83,2.28,5.83,5.71c0,.31-.02.7-.07,1.2ZM312.94,77.14c-.1-1.32-1.18-2.16-2.59-2.16-1.3,0-2.4.65-2.74,2.16h5.33Z" style="fill:#fff;"/><path d="M178.6,90.31h1.39l-3.1,10.33h-1.31l-3.12-10.33h1.4l2.37,8.05,2.37-8.05Z" style="fill:#fff;"/><path d="M180.36,97.14c0-2.22,1.66-3.67,3.66-3.67s3.67,1.45,3.67,3.67-1.68,3.69-3.67,3.69-3.66-1.47-3.66-3.69ZM186.39,97.14c0-1.44-1.08-2.44-2.37-2.44s-2.34,1-2.34,2.44,1.06,2.46,2.34,2.46,2.37-1,2.37-2.46Z" style="fill:#fff;"/><path d="M189.51,100.65v-10.81h1.3v10.81h-1.3Z" style="fill:#fff;"/><path d="M192.6,97.14c0-2.22,1.66-3.67,3.66-3.67s3.67,1.45,3.67,3.67-1.68,3.69-3.67,3.69-3.66-1.47-3.66-3.69ZM198.63,97.14c0-1.44-1.08-2.44-2.37-2.44s-2.34,1-2.34,2.44,1.06,2.46,2.34,2.46,2.37-1,2.37-2.46Z" style="fill:#fff;"/><path d="M208.2,96.6v4.05h-1.31v-3.97c0-1.17-.72-1.92-1.69-1.92s-2.15.58-2.15,2.1v3.79h-1.3v-7h1.3v1.06c.42-.85,1.56-1.24,2.33-1.24,1.74,0,2.83,1.17,2.82,3.13Z" style="fill:#fff;"/><path d="M213.64,93.64v1.12h-1.52v5.88h-1.3v-5.88h-1.26v-1.12h1.26v-2.64h1.3v2.64h1.52Z" style="fill:#fff;"/><path d="M220.47,93.64h1.31v7h-1.31v-1.25c-.46.84-1.44,1.43-2.56,1.43-1.83,0-3.43-1.54-3.43-3.69s1.51-3.67,3.49-3.67c1.05,0,2.04.45,2.5,1.27v-1.1ZM220.47,97.14c0-1.44-1.21-2.44-2.38-2.44-1.27,0-2.29,1.12-2.29,2.44s1.02,2.46,2.31,2.46,2.37-1.04,2.37-2.46ZM218.92,92.62h-1.27l-1.77-2.31h1.59l1.46,2.31Z" style="fill:#fff;"/><path d="M233.38,89.83h1.3v10.81h-1.3v-1.09c-.46.79-1.48,1.27-2.49,1.27-1.92,0-3.51-1.49-3.51-3.69s1.58-3.67,3.5-3.67c1.05,0,2.04.45,2.5,1.27v-4.9ZM233.38,97.12c0-1.52-1.23-2.43-2.38-2.43-1.28,0-2.29,1.02-2.29,2.43s1.02,2.48,2.29,2.48,2.38-.98,2.38-2.48Z" style="fill:#fff;"/><path d="M236.7,91.06c0-.5.42-.87.92-.87s.93.38.93.87-.42.87-.93.87-.92-.38-.92-.87ZM236.97,100.65v-7h1.3v7h-1.3Z" style="fill:#fff;"/><path d="M249.85,93.64h1.31v7h-1.31v-1.25c-.46.84-1.44,1.43-2.56,1.43-1.83,0-3.43-1.54-3.43-3.69s1.51-3.67,3.49-3.67c1.05,0,2.04.45,2.5,1.27v-1.1ZM249.85,97.14c0-1.44-1.21-2.44-2.38-2.44-1.27,0-2.29,1.12-2.29,2.44s1.02,2.46,2.31,2.46,2.37-1.04,2.37-2.46Z" style="fill:#fff;"/><path d="M258.49,93.64h1.3v7h-1.3v-1.09c-.42.88-1.54,1.27-2.33,1.27-1.75,0-2.83-1.17-2.82-3.14v-4.05h1.31v4.02c0,1.19.71,1.94,1.68,1.94s2.15-.58,2.16-2.1v-3.85Z" style="fill:#fff;"/><path d="M265.42,93.64v1.12h-1.51v5.88h-1.3v-5.88h-1.26v-1.12h1.26v-2.64h1.3v2.64h1.51Z" style="fill:#fff;"/><path d="M266.25,97.14c0-2.22,1.67-3.67,3.66-3.67s3.67,1.45,3.67,3.67-1.68,3.69-3.67,3.69-3.66-1.47-3.66-3.69ZM272.28,97.14c0-1.44-1.08-2.44-2.37-2.44s-2.34,1-2.34,2.44,1.06,2.46,2.34,2.46,2.37-1,2.37-2.46Z" style="fill:#fff;"/><path d="M274.84,98.59h1.21c.02.6.54,1.09,1.4,1.09s1.41-.44,1.41-1c0-.52-.41-.79-.96-.92l-.96-.23c-1.17-.31-1.85-.88-1.85-2.01s.99-2.07,2.4-2.07c1.18,0,2.42.63,2.42,2.04h-1.26c-.02-.54-.57-.9-1.12-.9-.68,0-1.12.44-1.12.98,0,.48.45.73.9.84l1.04.26c1.46.36,1.83,1.23,1.83,2.02,0,1.3-1.26,2.13-2.71,2.13-1.26,0-2.55-.79-2.61-2.23Z" style="fill:#fff;"/><path d="M286.53,93.64h1.41l-2.92,7h-1.28l-2.91-7h1.39l2.16,5.34,2.14-5.34Z" style="fill:#fff;"/><path d="M289.03,91.06c0-.5.42-.87.92-.87s.93.38.93.87-.42.87-.93.87-.92-.38-.92-.87ZM289.3,100.65v-7h1.3v7h-1.3Z" style="fill:#fff;"/><path d="M292.87,100.65v-10.81h1.3v10.81h-1.3Z" style="fill:#fff;"/><path d="M301.5,93.64h1.31v7h-1.31v-1.09c-.42.88-1.54,1.27-2.32,1.27-1.75,0-2.83-1.17-2.82-3.14v-4.05h1.3v4.02c0,1.19.71,1.94,1.68,1.94s2.14-.58,2.16-2.1v-3.85Z" style="fill:#fff;"/><path d="M312.37,97.15c0,2.22-1.57,3.67-3.49,3.67-1.05,0-2.04-.45-2.5-1.27v4.5h-1.31v-10.41h1.31v1.1c.46-.79,1.48-1.27,2.49-1.27,1.92,0,3.51,1.48,3.51,3.69ZM311.05,97.17c0-1.4-1.02-2.47-2.31-2.47s-2.37.97-2.37,2.47,1.23,2.43,2.37,2.43c1.29,0,2.31-1.02,2.31-2.43Z" style="fill:#fff;"/><path d="M321.49,97.15c0,2.22-1.57,3.67-3.49,3.67-1.05,0-2.04-.45-2.5-1.27v4.5h-1.31v-10.41h1.31v1.1c.46-.79,1.48-1.27,2.49-1.27,1.92,0,3.51,1.48,3.51,3.69ZM320.17,97.17c0-1.4-1.02-2.47-2.31-2.47s-2.37.97-2.37,2.47,1.23,2.43,2.37,2.43c1.29,0,2.31-1.02,2.31-2.43Z" style="fill:#fff;"/><path d="M328.83,93.64h1.3v7h-1.3v-1.25c-.47.84-1.44,1.43-2.57,1.43-1.83,0-3.43-1.54-3.43-3.69s1.51-3.67,3.5-3.67c1.05,0,2.04.45,2.5,1.27v-1.1ZM328.83,97.14c0-1.44-1.22-2.44-2.39-2.44-1.27,0-2.29,1.12-2.29,2.44s1.02,2.46,2.31,2.46,2.37-1.04,2.37-2.46Z" style="fill:#fff;"/><path d="M336.91,93.73l-.21,1.23c-.38-.18-.75-.24-1.02-.24-1.4,0-1.95,1.52-1.95,3.36v2.56h-1.32v-7h1.32v1.59c.36-1.23,1.04-1.77,1.96-1.77.5,0,1,.13,1.21.27Z" style="fill:#fff;"/><path d="M337.57,98.59h1.21c.01.6.54,1.09,1.4,1.09s1.41-.44,1.41-1c0-.52-.4-.79-.96-.92l-.96-.23c-1.17-.31-1.84-.88-1.84-2.01s.99-2.07,2.4-2.07c1.18,0,2.41.63,2.41,2.04h-1.26c-.01-.54-.57-.9-1.12-.9-.67,0-1.12.44-1.12.98,0,.48.45.73.9.84l1.04.26c1.46.36,1.83,1.23,1.83,2.02,0,1.3-1.26,2.13-2.71,2.13-1.26,0-2.55-.79-2.61-2.23Z" style="fill:#fff;"/><path d="M344.38,91.06c0-.5.42-.87.92-.87s.93.38.93.87-.42.87-.93.87-.92-.38-.92-.87ZM344.65,100.65v-7h1.31v7h-1.31Z" style="fill:#fff;"/><path d="M137.12,192.55h4.23v1.26h-5.59v-10.33h1.37v9.07Z" style="fill:#fff;"/><path d="M149.2,190.87h-5.7c.2,1.25,1.1,1.89,2.29,1.89.86,0,1.63-.39,2.04-1.1l1.12.45c-.6,1.21-1.86,1.88-3.21,1.88-2,0-3.6-1.49-3.6-3.71s1.6-3.66,3.6-3.66,3.48,1.44,3.48,3.66c0,.19-.02.39-.03.58ZM147.92,189.75c-.17-1.2-1.02-1.89-2.17-1.89s-2.03.63-2.23,1.89h4.41Z" style="fill:#fff;"/><path d="M157.46,189.76v4.05h-1.3v-3.97c0-1.17-.72-1.92-1.7-1.92s-2.14.58-2.14,2.1v3.79h-1.3v-7h1.3v1.06c.42-.85,1.56-1.24,2.32-1.24,1.74,0,2.83,1.17,2.82,3.13Z" style="fill:#fff;"/><path d="M162.91,186.81v1.12h-1.52v5.88h-1.3v-5.88h-1.26v-1.12h1.26v-2.64h1.3v2.64h1.52Z" style="fill:#fff;"/><path d="M170.8,190.87h-5.7c.2,1.25,1.1,1.89,2.29,1.89.86,0,1.63-.39,2.04-1.1l1.12.45c-.6,1.21-1.86,1.88-3.21,1.88-2,0-3.6-1.49-3.6-3.71s1.6-3.66,3.6-3.66,3.48,1.44,3.48,3.66c0,.19-.02.39-.03.58ZM169.52,189.75c-.17-1.2-1.02-1.89-2.18-1.89s-2.03.63-2.23,1.89h4.41Z" style="fill:#fff;"/><path d="M178.15,186.81v1.08l-4.32,4.69h4.32v1.23h-6.15v-1.08l4.24-4.69h-4.02v-1.23h5.93Z" style="fill:#fff;"/><path d="M185.59,186.81v1.08l-4.32,4.69h4.32v1.23h-6.15v-1.08l4.25-4.69h-4.02v-1.23h5.92Z" style="fill:#fff;"/><path d="M192.84,186.81h1.3v7h-1.3v-1.25c-.47.84-1.44,1.43-2.57,1.43-1.83,0-3.43-1.54-3.43-3.69s1.51-3.67,3.49-3.67c1.05,0,2.04.45,2.51,1.27v-1.1ZM192.84,190.3c0-1.44-1.22-2.44-2.39-2.44-1.27,0-2.29,1.12-2.29,2.44s1.02,2.46,2.31,2.46,2.37-1.04,2.37-2.46Z" style="fill:#fff;"/><g style="opacity:0;"><path d="M298.89,170.44c0-2.92,2.32-5.37,5.25-5.37,1.59,0,2.97.67,3.88,1.75l-.99.84c-.69-.81-1.74-1.33-2.89-1.33-2.18,0-3.88,1.89-3.88,4.11s1.71,4.06,3.88,4.06c1.15,0,2.21-.52,2.89-1.33l.99.84c-.92,1.08-2.29,1.75-3.88,1.75-2.93,0-5.25-2.4-5.25-5.33Z" style="fill:#fff;"/><path d="M309.09,172.07c0-2.22,1.67-3.67,3.66-3.67s3.68,1.45,3.68,3.67-1.68,3.69-3.68,3.69-3.66-1.47-3.66-3.69ZM315.12,172.07c0-1.44-1.08-2.44-2.37-2.44s-2.34,1-2.34,2.44,1.07,2.46,2.34,2.46,2.37-1,2.37-2.46Z" style="fill:#fff;"/><path d="M329.27,171.53v4.05h-1.31v-3.97c0-1.17-.64-1.95-1.66-1.95-1.25-.02-1.89.85-1.89,2.42v3.51h-1.3v-3.97c0-1.19-.64-1.95-1.57-1.95-.99,0-1.98.65-1.98,2.13v3.79h-1.3v-7h1.3v1.08c.35-.77,1.26-1.26,2.25-1.26s1.9.54,2.31,1.5c.64-1.26,1.74-1.5,2.44-1.5,1.75,0,2.71,1.17,2.71,3.13Z" style="fill:#fff;"/><path d="M338.75,172.09c0,2.22-1.58,3.67-3.5,3.67-1.05,0-2.04-.45-2.5-1.27v4.5h-1.3v-10.41h1.3v1.1c.46-.79,1.49-1.27,2.49-1.27,1.92,0,3.51,1.48,3.51,3.69ZM337.43,172.1c0-1.4-1.02-2.47-2.31-2.47s-2.37.97-2.37,2.47,1.23,2.43,2.37,2.43c1.29,0,2.31-1.02,2.31-2.43Z" style="fill:#fff;"/><path d="M340.08,172.07c0-2.22,1.66-3.67,3.66-3.67s3.67,1.45,3.67,3.67-1.68,3.69-3.67,3.69-3.66-1.47-3.66-3.69ZM346.11,172.07c0-1.44-1.08-2.44-2.37-2.44s-2.34,1-2.34,2.44,1.06,2.46,2.34,2.46,2.37-1,2.37-2.46Z" style="fill:#fff;"/><path d="M353.73,168.67l-.21,1.23c-.38-.18-.75-.24-1.02-.24-1.4,0-1.95,1.52-1.95,3.36v2.56h-1.32v-7h1.32v1.59c.36-1.23,1.03-1.77,1.96-1.77.5,0,1,.13,1.21.27Z" style="fill:#fff;"/><path d="M358.4,168.58v1.12h-1.52v5.88h-1.3v-5.88h-1.26v-1.12h1.26v-2.64h1.3v2.64h1.52Z" style="fill:#fff;"/><path d="M365.22,168.58h1.31v7h-1.31v-1.25c-.46.84-1.44,1.43-2.56,1.43-1.83,0-3.43-1.54-3.43-3.69s1.51-3.67,3.5-3.67c1.05,0,2.04.45,2.5,1.27v-1.1ZM365.22,172.07c0-1.44-1.21-2.44-2.38-2.44-1.27,0-2.29,1.12-2.29,2.44s1.02,2.46,2.31,2.46,2.37-1.04,2.37-2.46Z" style="fill:#fff;"/><path d="M379.83,171.53v4.05h-1.31v-3.97c0-1.17-.64-1.95-1.66-1.95-1.25-.02-1.89.85-1.89,2.42v3.51h-1.3v-3.97c0-1.19-.64-1.95-1.57-1.95-.99,0-1.98.65-1.98,2.13v3.79h-1.3v-7h1.3v1.08c.35-.77,1.26-1.26,2.25-1.26s1.9.54,2.31,1.5c.64-1.26,1.74-1.5,2.44-1.5,1.75,0,2.71,1.17,2.71,3.13Z" style="fill:#fff;"/><path d="M388.59,172.64h-5.7c.19,1.25,1.09,1.89,2.29,1.89.85,0,1.63-.39,2.04-1.1l1.12.45c-.6,1.21-1.86,1.88-3.21,1.88-2,0-3.6-1.49-3.6-3.71s1.61-3.66,3.6-3.66,3.48,1.44,3.48,3.66c0,.19-.02.39-.03.58ZM387.32,171.52c-.16-1.2-1.02-1.89-2.17-1.89s-2.02.63-2.24,1.89h4.41Z" style="fill:#fff;"/><path d="M396.86,171.53v4.05h-1.3v-3.97c0-1.17-.72-1.92-1.7-1.92s-2.14.58-2.14,2.1v3.79h-1.3v-7h1.3v1.06c.42-.85,1.56-1.24,2.32-1.24,1.74,0,2.84,1.17,2.82,3.13Z" style="fill:#fff;"/><path d="M402.3,168.58v1.12h-1.51v5.88h-1.31v-5.88h-1.26v-1.12h1.26v-2.64h1.31v2.64h1.51Z" style="fill:#fff;"/><path d="M403.49,166c0-.5.42-.87.92-.87s.93.38.93.87-.42.87-.93.87-.92-.38-.92-.87ZM403.76,175.58v-7h1.31v7h-1.31Z" style="fill:#fff;"/><path d="M313.8,183.25c2.94,0,4.66,2.25,4.66,5.19s-1.72,5.15-4.66,5.15h-4.01v-10.33h4.01ZM313.8,192.32c2.17,0,3.3-1.68,3.3-3.89s-1.12-3.93-3.3-3.93h-2.64v7.81h2.64Z" style="fill:#fff;"/><path d="M320.04,184c0-.5.42-.87.91-.87s.93.38.93.87-.42.87-.93.87-.91-.38-.91-.87ZM320.31,193.58v-7h1.3v7h-1.3Z" style="fill:#fff;"/><path d="M323.33,191.53h1.21c.01.6.54,1.09,1.4,1.09s1.41-.44,1.41-1c0-.52-.41-.79-.96-.92l-.96-.23c-1.17-.31-1.85-.88-1.85-2.01s.99-2.07,2.4-2.07c1.18,0,2.41.63,2.41,2.04h-1.26c-.01-.54-.57-.9-1.12-.9-.67,0-1.12.44-1.12.98,0,.48.45.73.9.84l1.04.26c1.46.36,1.83,1.23,1.83,2.02,0,1.3-1.26,2.13-2.71,2.13-1.26,0-2.55-.79-2.61-2.23Z" style="fill:#fff;"/><path d="M333.84,184c-1.24,0-1.57.76-1.56,1.68v.9h1.64v1.12h-1.64v5.88h-1.3v-5.88h-1.35v-1.12h1.35v-.72c0-1.83.76-3.09,2.64-3.09h.75v1.23h-.53Z" style="fill:#fff;"/><path d="M340.4,186.58h1.3v7h-1.3v-1.09c-.42.88-1.54,1.27-2.32,1.27-1.76,0-2.83-1.17-2.82-3.14v-4.05h1.3v4.02c0,1.19.71,1.94,1.68,1.94s2.15-.58,2.16-2.1v-3.85Z" style="fill:#fff;"/><path d="M350.42,189.53v4.05h-1.31v-3.97c0-1.17-.72-1.92-1.69-1.92s-2.15.58-2.15,2.1v3.79h-1.3v-7h1.3v1.06c.42-.85,1.56-1.24,2.33-1.24,1.74,0,2.83,1.17,2.82,3.13Z" style="fill:#fff;"/><path d="M358.2,186.58v1.08l-4.32,4.69h4.32v1.23h-6.15v-1.08l4.24-4.69h-4.02v-1.23h5.92Z" style="fill:#fff;"/><path d="M359.76,184c0-.5.42-.87.92-.87s.93.38.93.87-.42.87-.93.87-.92-.38-.92-.87ZM360.03,193.58v-7h1.3v7h-1.3Z" style="fill:#fff;"/><path d="M363.12,190.07c0-2.22,1.67-3.67,3.66-3.67s3.68,1.45,3.68,3.67-1.68,3.69-3.68,3.69-3.66-1.47-3.66-3.69ZM369.15,190.07c0-1.44-1.08-2.44-2.37-2.44s-2.34,1-2.34,2.44,1.07,2.46,2.34,2.46,2.37-1,2.37-2.46Z" style="fill:#fff;"/><path d="M378.72,189.53v4.05h-1.31v-3.97c0-1.17-.72-1.92-1.69-1.92s-2.15.58-2.15,2.1v3.79h-1.3v-7h1.3v1.06c.42-.85,1.56-1.24,2.33-1.24,1.74,0,2.83,1.17,2.82,3.13Z" style="fill:#fff;"/><path d="M386.42,186.58h1.3v7h-1.3v-1.25c-.46.84-1.44,1.43-2.56,1.43-1.83,0-3.43-1.54-3.43-3.69s1.51-3.67,3.5-3.67c1.05,0,2.04.45,2.5,1.27v-1.1ZM386.42,190.07c0-1.44-1.21-2.44-2.38-2.44-1.27,0-2.29,1.12-2.29,2.44s1.02,2.46,2.31,2.46,2.37-1.04,2.37-2.46Z" style="fill:#fff;"/><path d="M390,193.58v-10.81h1.3v10.81h-1.3Z" style="fill:#fff;"/><path d="M393.3,184c0-.5.42-.87.92-.87s.93.38.93.87-.42.87-.93.87-.92-.38-.92-.87ZM393.57,193.58v-7h1.31v7h-1.31Z" style="fill:#fff;"/></g><g style="opacity:0;"><path d="M231.44,340.47v1.26h-3.15v9.07h-1.37v-9.07h-3.15v-1.26h7.67Z" style="fill:#fff;"/><path d="M235.99,343.89l-.21,1.23c-.38-.18-.75-.24-1.02-.24-1.39,0-1.95,1.52-1.95,3.36v2.56h-1.32v-7h1.32v1.59c.36-1.23,1.03-1.77,1.96-1.77.49,0,1,.13,1.21.27Z" style="fill:#fff;"/><path d="M242.57,343.8h1.31v7h-1.31v-1.25c-.46.84-1.44,1.43-2.56,1.43-1.83,0-3.43-1.54-3.43-3.69s1.51-3.67,3.5-3.67c1.05,0,2.04.45,2.5,1.28v-1.1ZM242.57,347.3c0-1.44-1.21-2.44-2.38-2.44-1.27,0-2.29,1.12-2.29,2.44s1.02,2.46,2.31,2.46,2.37-1.04,2.37-2.46Z" style="fill:#fff;"/><path d="M251.69,343.8h1.3v6.03c0,3.31-1.5,4.56-3.81,4.56-1.27,0-2.46-.64-3.15-1.88l1.11-.58c.43.79,1.26,1.23,2.04,1.23,1.54,0,2.51-.87,2.51-3.24v-.21c-.46.79-1.49,1.28-2.49,1.28-1.92,0-3.51-1.49-3.51-3.69s1.57-3.67,3.49-3.67c1.05,0,2.04.46,2.51,1.28v-1.1ZM251.69,347.28c0-1.52-1.23-2.43-2.38-2.43-1.28,0-2.29,1.02-2.29,2.43s1.02,2.47,2.29,2.47,2.38-.97,2.38-2.47Z" style="fill:#fff;"/><path d="M260.33,343.8h1.3v7h-1.3v-1.09c-.42.88-1.54,1.28-2.32,1.28-1.76,0-2.83-1.17-2.82-3.14v-4.05h1.3v4.02c0,1.18.71,1.93,1.68,1.93s2.15-.58,2.16-2.1v-3.86Z" style="fill:#fff;"/><path d="M269.42,343.8h1.31v7h-1.31v-1.25c-.46.84-1.44,1.43-2.56,1.43-1.83,0-3.43-1.54-3.43-3.69s1.51-3.67,3.5-3.67c1.05,0,2.04.45,2.5,1.28v-1.1ZM269.42,347.3c0-1.44-1.21-2.44-2.38-2.44-1.27,0-2.29,1.12-2.29,2.44s1.02,2.46,2.31,2.46,2.37-1.04,2.37-2.46Z" style="fill:#fff;"/><path d="M277.51,343.89l-.21,1.23c-.38-.18-.75-.24-1.02-.24-1.39,0-1.95,1.52-1.95,3.36v2.56h-1.32v-7h1.32v1.59c.36-1.23,1.03-1.77,1.96-1.77.49,0,1,.13,1.21.27Z" style="fill:#fff;"/><path d="M284.11,339.99h1.3v10.81h-1.3v-1.09c-.46.79-1.48,1.28-2.49,1.28-1.92,0-3.51-1.49-3.51-3.69s1.58-3.67,3.5-3.67c1.05,0,2.04.45,2.5,1.28v-4.91ZM284.11,347.28c0-1.52-1.23-2.43-2.38-2.43-1.28,0-2.29,1.02-2.29,2.43s1.02,2.47,2.29,2.47,2.38-.97,2.38-2.47Z" style="fill:#fff;"/><path d="M287.21,347.3c0-2.22,1.66-3.67,3.66-3.67s3.67,1.46,3.67,3.67-1.68,3.69-3.67,3.69-3.66-1.47-3.66-3.69ZM293.24,347.3c0-1.44-1.08-2.44-2.37-2.44s-2.34,1-2.34,2.44,1.06,2.46,2.34,2.46,2.37-1,2.37-2.46Z" style="fill:#fff;"/><path d="M236.97,358.47c2.19,0,3.07,1.62,3.07,3.22s-.88,3.22-3.07,3.22h-2.75v3.88h-1.36v-10.33h4.11ZM236.88,363.65c1.29,0,1.8-.96,1.8-1.95s-.49-1.96-1.72-1.96h-2.73v3.92h2.66Z" style="fill:#fff;"/><path d="M246.94,361.8h1.3v7h-1.3v-1.25c-.46.84-1.44,1.43-2.57,1.43-1.83,0-3.43-1.54-3.43-3.69s1.51-3.67,3.49-3.67c1.05,0,2.04.45,2.51,1.28v-1.1ZM246.94,365.3c0-1.44-1.21-2.44-2.38-2.44-1.28,0-2.29,1.12-2.29,2.44s1.02,2.46,2.31,2.46,2.37-1.04,2.37-2.46Z" style="fill:#fff;"/><path d="M255.03,361.89l-.21,1.23c-.38-.18-.75-.24-1.02-.24-1.4,0-1.95,1.52-1.95,3.36v2.56h-1.32v-7h1.32v1.59c.36-1.23,1.04-1.77,1.96-1.77.5,0,1.01.13,1.21.27Z" style="fill:#fff;"/><path d="M261.94,361.8v1.08l-4.32,4.7h4.32v1.23h-6.15v-1.08l4.24-4.69h-4.02v-1.23h5.92Z" style="fill:#fff;"/><path d="M263.5,359.22c0-.5.42-.87.92-.87s.93.38.93.87-.42.87-.93.87-.92-.38-.92-.87ZM263.77,368.81v-7h1.3v7h-1.3Z" style="fill:#fff;"/><path d="M272.86,361.8h1.31v7h-1.31v-1.25c-.46.84-1.44,1.43-2.57,1.43-1.83,0-3.43-1.54-3.43-3.69s1.51-3.67,3.49-3.67c1.05,0,2.04.45,2.5,1.28v-1.1ZM272.86,365.3c0-1.44-1.21-2.44-2.38-2.44-1.27,0-2.29,1.12-2.29,2.44s1.02,2.46,2.31,2.46,2.37-1.04,2.37-2.46Z" style="fill:#fff;"/><path d="M276.45,368.81v-10.81h1.3v10.81h-1.3Z" style="fill:#fff;"/><path d="M286.6,365.87h-5.7c.2,1.25,1.1,1.89,2.29,1.89.86,0,1.63-.39,2.04-1.09l1.12.45c-.6,1.21-1.86,1.88-3.21,1.88-2,0-3.6-1.49-3.6-3.71s1.6-3.66,3.6-3.66,3.48,1.44,3.48,3.66c0,.19-.02.39-.03.58ZM285.33,364.74c-.17-1.2-1.02-1.89-2.17-1.89s-2.03.63-2.23,1.89h4.41Z" style="fill:#fff;"/></g><path d="M28.66,303.33l-3.94-5.93h-1.13v5.93h-3.34v-16.54h6.6c3.79,0,5.42,2.69,5.42,5.4,0,2.35-1.66,4.66-3.98,5.06l4.27,6.07h-3.91ZM23.59,289.75v4.97h2.66c1.87,0,2.66-1.13,2.66-2.45s-.84-2.52-2.4-2.52h-2.93Z" style="fill:#fff;"/><path d="M42.48,292.12h3.14v11.21h-3.14v-1.82c-.48,1.46-2.26,2.11-3.36,2.11-2.93,0-4.46-1.97-4.44-5.33v-6.17h3.14v6c0,1.75,1.06,2.57,2.14,2.57s2.52-.62,2.52-2.64v-5.93Z" style="fill:#fff;"/><path d="M48.09,297.74c0-3.55,2.83-5.9,6.02-5.9s6.03,2.35,6.03,5.9-2.83,5.88-6.03,5.88-6.02-2.35-6.02-5.88ZM56.95,297.74c0-1.75-1.27-2.98-2.83-2.98s-2.83,1.22-2.83,2.98,1.27,2.95,2.83,2.95,2.83-1.22,2.83-2.95Z" style="fill:#fff;"/><path d="M62.61,303.33v-17.31h3.14v17.31h-3.14Z" style="fill:#fff;"/><path d="M68.23,297.74c0-3.55,2.83-5.9,6.03-5.9s6.03,2.35,6.03,5.9-2.83,5.88-6.03,5.88-6.03-2.35-6.03-5.88ZM77.09,297.74c0-1.75-1.27-2.98-2.83-2.98s-2.83,1.22-2.83,2.98,1.27,2.95,2.83,2.95,2.83-1.22,2.83-2.95Z" style="fill:#fff;"/><path d="M18.96,315.07c0-2.92,2.33-5.37,5.25-5.37,1.59,0,2.97.67,3.88,1.75l-.99.84c-.69-.81-1.74-1.33-2.89-1.33-2.17,0-3.88,1.89-3.88,4.11s1.71,4.07,3.88,4.07c1.15,0,2.21-.53,2.89-1.33l.99.84c-.92,1.08-2.29,1.75-3.88,1.75-2.92,0-5.25-2.4-5.25-5.33Z" style="fill:#fff;"/><path d="M29.16,316.71c0-2.22,1.66-3.67,3.66-3.67s3.67,1.45,3.67,3.67-1.68,3.69-3.67,3.69-3.66-1.47-3.66-3.69ZM35.19,316.71c0-1.44-1.08-2.45-2.37-2.45s-2.34,1-2.34,2.45,1.07,2.46,2.34,2.46,2.37-1,2.37-2.46Z" style="fill:#fff;"/><path d="M44.76,316.17v4.05h-1.31v-3.97c0-1.17-.72-1.92-1.69-1.92s-2.15.58-2.15,2.1v3.79h-1.3v-7h1.3v1.06c.42-.85,1.56-1.24,2.33-1.24,1.74,0,2.83,1.17,2.82,3.13Z" style="fill:#fff;"/><path d="M46.38,318.16h1.21c.02.6.54,1.09,1.39,1.09s1.41-.44,1.41-1c0-.53-.4-.79-.96-.92l-.96-.23c-1.17-.31-1.84-.88-1.84-2.01s.99-2.07,2.4-2.07c1.19,0,2.42.63,2.42,2.04h-1.26c-.02-.54-.57-.9-1.12-.9-.68,0-1.12.43-1.12.97,0,.48.45.74.9.84l1.04.26c1.45.36,1.83,1.23,1.83,2.02,0,1.3-1.26,2.13-2.71,2.13-1.26,0-2.55-.79-2.61-2.23Z" style="fill:#fff;"/><path d="M58.98,313.21h1.3v7h-1.3v-1.25c-.46.84-1.44,1.42-2.56,1.42-1.83,0-3.44-1.54-3.44-3.69s1.52-3.67,3.5-3.67c1.05,0,2.04.45,2.5,1.27v-1.09ZM58.98,316.71c0-1.44-1.21-2.45-2.38-2.45-1.28,0-2.29,1.12-2.29,2.45s1.02,2.46,2.31,2.46,2.37-1.04,2.37-2.46Z" style="fill:#fff;"/><path d="M69.87,316.72c0,2.22-1.57,3.67-3.49,3.67-1.05,0-2.04-.45-2.5-1.27v4.5h-1.31v-10.41h1.31v1.09c.46-.79,1.48-1.27,2.49-1.27,1.92,0,3.51,1.48,3.51,3.69ZM68.55,316.74c0-1.39-1.02-2.47-2.31-2.47s-2.37.97-2.37,2.47,1.23,2.43,2.37,2.43c1.29,0,2.31-1.02,2.31-2.43Z" style="fill:#fff;"/><path d="M78.27,317.28h-5.7c.19,1.25,1.09,1.89,2.29,1.89.86,0,1.64-.39,2.04-1.1l1.12.45c-.6,1.21-1.86,1.88-3.21,1.88-1.99,0-3.6-1.49-3.6-3.71s1.61-3.66,3.6-3.66,3.48,1.44,3.48,3.66c0,.2-.02.39-.03.58ZM76.99,316.15c-.17-1.2-1.02-1.89-2.18-1.89s-2.02.63-2.23,1.89h4.41Z" style="fill:#fff;"/><path d="M84.7,313.21h1.41l-2.92,7h-1.28l-2.91-7h1.4l2.16,5.34,2.14-5.34Z" style="fill:#fff;"/><path d="M86.82,316.71c0-2.22,1.67-3.67,3.66-3.67s3.68,1.45,3.68,3.67-1.68,3.69-3.68,3.69-3.66-1.47-3.66-3.69ZM92.85,316.71c0-1.44-1.08-2.45-2.37-2.45s-2.34,1-2.34,2.45,1.07,2.46,2.34,2.46,2.37-1,2.37-2.46Z" style="fill:#fff;"/><path d="M95.97,320.22v-10.81h1.31v10.81h-1.31Z" style="fill:#fff;"/><path d="M106.12,317.28h-5.7c.19,1.25,1.09,1.89,2.29,1.89.85,0,1.63-.39,2.04-1.1l1.12.45c-.6,1.21-1.86,1.88-3.21,1.88-1.99,0-3.6-1.49-3.6-3.71s1.61-3.66,3.6-3.66,3.48,1.44,3.48,3.66c0,.2-.02.39-.03.58ZM104.85,316.15c-.17-1.2-1.02-1.89-2.18-1.89s-2.02.63-2.23,1.89h4.41Z" style="fill:#fff;"/><path d="M113.47,313.21v1.08l-4.32,4.69h4.32v1.23h-6.15v-1.08l4.25-4.7h-4.02v-1.23h5.92Z" style="fill:#fff;"/><path d="M120.91,313.21v1.08l-4.32,4.69h4.32v1.23h-6.15v-1.08l4.25-4.7h-4.02v-1.23h5.92Z" style="fill:#fff;"/><path d="M128.16,313.21h1.3v7h-1.3v-1.25c-.47.84-1.44,1.42-2.57,1.42-1.83,0-3.43-1.54-3.43-3.69s1.51-3.67,3.5-3.67c1.05,0,2.04.45,2.5,1.27v-1.09ZM128.16,316.71c0-1.44-1.22-2.45-2.39-2.45-1.27,0-2.29,1.12-2.29,2.45s1.02,2.46,2.31,2.46,2.37-1.04,2.37-2.46Z" style="fill:#fff;"/><g style="opacity:.5;"><path d="M390.76,298.13h3.34c.02,1.18,1.18,2.16,2.71,2.16s2.47-.82,2.47-1.99c0-.91-.67-1.56-2.09-1.99l-2.02-.58c-3.62-.96-4.27-3.14-4.27-4.63,0-2.95,2.54-4.99,5.71-4.99s5.52,1.9,5.52,5.04h-3.34c0-1.18-.82-2.09-2.26-2.09-1.3,0-2.28.86-2.28,1.97,0,.41.12,1.25,1.85,1.75l1.85.53c2.5.74,4.68,2.02,4.68,4.82,0,3.29-2.81,5.09-5.93,5.09-3.53,0-5.95-2.18-5.95-5.09Z" style="fill:#fff;"/><path d="M411.57,291.72v2.45h-2.38v8.76h-3.14v-8.76h-2.04v-2.45h2.04v-4.08h3.14v4.08h2.38Z" style="fill:#fff;"/><path d="M421.8,291.79l-.72,3c-.67-.36-1.22-.41-1.61-.41-1.61,0-2.71,1.51-2.71,4.7v3.84h-3.14v-11.21h3.12v2.4c.62-1.87,1.9-2.69,3.29-2.69.6,0,1.27.1,1.78.36Z" style="fill:#fff;"/><path d="M431.13,291.72h3.14v11.21h-3.14v-1.82c-.48,1.46-2.26,2.11-3.36,2.11-2.93,0-4.46-1.97-4.44-5.33v-6.17h3.14v6c0,1.75,1.06,2.57,2.14,2.57s2.52-.62,2.52-2.64v-5.93Z" style="fill:#fff;"/><path d="M455.37,296.78v6.14h-3.17v-6.05c0-1.75-.91-2.5-2.02-2.5-1.34-.02-2.21.94-2.21,3.02v5.52h-3.14v-6c0-1.78-.91-2.54-1.97-2.54-1.13,0-2.28.62-2.28,2.64v5.9h-3.14v-11.21h3.14v1.8c.46-1.39,1.97-2.09,3.17-2.09,1.66,0,2.93.79,3.6,2.21.82-1.63,2.57-2.21,3.74-2.21,2.81,0,4.27,1.99,4.27,5.35Z" style="fill:#fff;"/><path d="M469.41,298.34h-8.42c.34,1.32,1.39,2.09,2.88,2.09,1.15,0,2.26-.53,2.95-1.32l1.82,1.85c-1.06,1.42-3,2.26-4.97,2.26-3.46,0-5.98-2.42-5.98-5.88s2.76-5.9,5.95-5.9,5.83,2.28,5.83,5.71c0,.31-.02.7-.07,1.2ZM466.32,296.3c-.1-1.32-1.18-2.16-2.59-2.16-1.3,0-2.4.65-2.74,2.16h5.33Z" style="fill:#fff;"/><path d="M482.85,296.78v6.14h-3.14v-5.98c0-1.75-1.06-2.54-2.14-2.54s-2.52.6-2.52,2.64v5.88h-3.14v-11.21h3.14v1.82c.53-1.46,2.28-2.11,3.36-2.11,2.93,0,4.46,1.99,4.44,5.35Z" style="fill:#fff;"/><path d="M492.33,291.72v2.45h-2.38v8.76h-3.14v-8.76h-2.04v-2.45h2.04v-4.08h3.14v4.08h2.38Z" style="fill:#fff;"/><path d="M493.94,287.85c0-1.06.91-1.87,1.99-1.87s1.99.82,1.99,1.87-.89,1.9-1.99,1.9-1.99-.84-1.99-1.9ZM494.37,302.93v-11.21h3.14v11.21h-3.14Z" style="fill:#fff;"/></g><g style="opacity:.5;"><path d="M338.45,314.67c0-2.92,2.33-5.37,5.25-5.37,1.59,0,2.97.67,3.88,1.75l-.99.84c-.69-.81-1.74-1.33-2.89-1.33-2.17,0-3.88,1.89-3.88,4.11s1.71,4.06,3.88,4.06c1.15,0,2.21-.52,2.89-1.33l.99.84c-.92,1.08-2.29,1.75-3.88,1.75-2.92,0-5.25-2.4-5.25-5.33Z" style="fill:#fff;"/><path d="M348.65,316.3c0-2.22,1.67-3.67,3.66-3.67s3.67,1.46,3.67,3.67-1.68,3.69-3.67,3.69-3.66-1.47-3.66-3.69ZM354.68,316.3c0-1.44-1.08-2.44-2.37-2.44s-2.34,1-2.34,2.44,1.06,2.46,2.34,2.46,2.37-1,2.37-2.46Z" style="fill:#fff;"/><path d="M364.25,315.76v4.05h-1.31v-3.97c0-1.17-.72-1.92-1.69-1.92s-2.15.58-2.15,2.1v3.79h-1.3v-7h1.3v1.07c.42-.86,1.56-1.25,2.33-1.25,1.74,0,2.83,1.17,2.82,3.13Z" style="fill:#fff;"/><path d="M365.94,316.3c0-2.22,1.66-3.67,3.66-3.67s3.67,1.46,3.67,3.67-1.68,3.69-3.67,3.69-3.66-1.47-3.66-3.69ZM371.97,316.3c0-1.44-1.08-2.44-2.37-2.44s-2.34,1-2.34,2.44,1.07,2.46,2.34,2.46,2.37-1,2.37-2.46Z" style="fill:#fff;"/><path d="M374.54,317.76h1.21c.01.6.54,1.09,1.39,1.09s1.41-.43,1.41-1c0-.52-.41-.79-.96-.92l-.96-.22c-1.17-.32-1.84-.88-1.84-2.01s.99-2.07,2.4-2.07c1.19,0,2.42.63,2.42,2.04h-1.26c-.01-.54-.57-.9-1.12-.9-.67,0-1.12.44-1.12.98,0,.48.45.73.9.84l1.03.25c1.46.36,1.83,1.23,1.83,2.03,0,1.3-1.26,2.13-2.71,2.13-1.26,0-2.55-.79-2.61-2.24Z" style="fill:#fff;"/><path d="M381.12,316.3c0-2.22,1.75-3.67,3.76-3.67,1.09,0,2.05.44,2.67,1.11l-.83.85c-.43-.45-1.06-.73-1.8-.73-1.38,0-2.49,1-2.49,2.44s1.11,2.46,2.49,2.46c.74,0,1.37-.29,1.8-.74l.83.86c-.62.69-1.58,1.11-2.67,1.11-2.01,0-3.76-1.47-3.76-3.69Z" style="fill:#fff;"/><path d="M395.61,316.87h-5.7c.19,1.25,1.09,1.89,2.29,1.89.85,0,1.63-.39,2.04-1.09l1.12.45c-.6,1.21-1.86,1.88-3.21,1.88-2,0-3.6-1.49-3.6-3.71s1.61-3.66,3.6-3.66,3.48,1.44,3.48,3.66c0,.19-.01.39-.03.58ZM394.34,315.75c-.17-1.2-1.02-1.89-2.17-1.89s-2.03.63-2.24,1.89h4.41Z" style="fill:#fff;"/><path d="M403.88,315.76v4.05h-1.31v-3.97c0-1.17-.72-1.92-1.69-1.92s-2.15.58-2.15,2.1v3.79h-1.3v-7h1.3v1.07c.42-.86,1.56-1.25,2.33-1.25,1.74,0,2.83,1.17,2.82,3.13Z" style="fill:#fff;"/><path d="M411.66,312.81v1.08l-4.32,4.7h4.32v1.23h-6.15v-1.08l4.25-4.69h-4.02v-1.23h5.92Z" style="fill:#fff;"/><path d="M418.91,312.81h1.31v7h-1.31v-1.25c-.46.84-1.44,1.43-2.56,1.43-1.83,0-3.43-1.54-3.43-3.69s1.51-3.67,3.49-3.67c1.05,0,2.04.45,2.5,1.28v-1.1ZM418.91,316.3c0-1.44-1.21-2.44-2.38-2.44-1.27,0-2.29,1.12-2.29,2.44s1.02,2.46,2.31,2.46,2.37-1.04,2.37-2.46Z" style="fill:#fff;"/><path d="M431.82,309h1.3v10.81h-1.3v-1.09c-.46.79-1.48,1.28-2.49,1.28-1.92,0-3.51-1.49-3.51-3.69s1.58-3.67,3.5-3.67c1.05,0,2.04.45,2.5,1.28v-4.91ZM431.82,316.29c0-1.52-1.23-2.43-2.38-2.43-1.28,0-2.29,1.02-2.29,2.43s1.02,2.47,2.29,2.47,2.38-.97,2.38-2.47Z" style="fill:#fff;"/><path d="M435.14,310.23c0-.5.42-.87.92-.87s.93.38.93.87-.42.87-.93.87-.92-.38-.92-.87ZM435.41,319.81v-7h1.3v7h-1.3Z" style="fill:#fff;"/><path d="M446.13,312.81v1.12h-1.51v5.88h-1.31v-5.88h-1.26v-1.12h1.26v-2.64h1.31v2.64h1.51Z" style="fill:#fff;"/><path d="M454.02,316.87h-5.7c.19,1.25,1.09,1.89,2.29,1.89.85,0,1.63-.39,2.04-1.09l1.12.45c-.6,1.21-1.86,1.88-3.21,1.88-2,0-3.6-1.49-3.6-3.71s1.61-3.66,3.6-3.66,3.48,1.44,3.48,3.66c0,.19-.01.39-.03.58ZM452.75,315.75c-.17-1.2-1.02-1.89-2.17-1.89s-2.03.63-2.24,1.89h4.41Z" style="fill:#fff;"/><path d="M455.34,316.3c0-2.22,1.75-3.67,3.76-3.67,1.1,0,2.06.44,2.67,1.11l-.82.85c-.44-.45-1.07-.73-1.8-.73-1.38,0-2.49,1-2.49,2.44s1.11,2.46,2.49,2.46c.74,0,1.37-.29,1.8-.74l.82.86c-.61.69-1.57,1.11-2.67,1.11-2.01,0-3.76-1.47-3.76-3.69Z" style="fill:#fff;"/><path d="M469.88,315.76v4.05h-1.3v-3.97c0-1.17-.72-1.92-1.7-1.92s-2.14.58-2.14,2.1v3.79h-1.3v-7h1.3v1.07c.42-.86,1.56-1.25,2.33-1.25,1.74,0,2.83,1.17,2.82,3.13Z" style="fill:#fff;"/><path d="M471.78,310.23c0-.5.42-.87.92-.87s.93.38.93.87-.42.87-.93.87-.92-.38-.92-.87ZM472.05,319.81v-7h1.3v7h-1.3Z" style="fill:#fff;"/><path d="M475.13,316.3c0-2.22,1.75-3.67,3.76-3.67,1.1,0,2.06.44,2.67,1.11l-.82.85c-.44-.45-1.07-.73-1.8-.73-1.38,0-2.49,1-2.49,2.44s1.11,2.46,2.49,2.46c.74,0,1.37-.29,1.8-.74l.82.86c-.61.69-1.57,1.11-2.67,1.11-2.01,0-3.76-1.47-3.76-3.69Z" style="fill:#fff;"/><path d="M489.66,315.76v4.05h-1.31v-3.97c0-1.17-.72-1.92-1.69-1.92s-2.15.58-2.15,2.1v3.79h-1.3v-10.81h1.3v4.88c.42-.86,1.56-1.25,2.33-1.25,1.74,0,2.83,1.17,2.82,3.13Z" style="fill:#fff;"/><path d="M498.42,316.87h-5.7c.2,1.25,1.09,1.89,2.29,1.89.86,0,1.63-.39,2.04-1.09l1.12.45c-.6,1.21-1.86,1.88-3.21,1.88-2,0-3.6-1.49-3.6-3.71s1.6-3.66,3.6-3.66,3.48,1.44,3.48,3.66c0,.19-.02.39-.03.58ZM497.15,315.75c-.17-1.2-1.02-1.89-2.17-1.89s-2.02.63-2.23,1.89h4.41Z" style="fill:#fff;"/><path d="M348.4,332.67c0-2.92,2.33-5.37,5.25-5.37,1.59,0,2.97.67,3.88,1.75l-.99.84c-.69-.81-1.74-1.33-2.89-1.33-2.17,0-3.88,1.89-3.88,4.11s1.71,4.06,3.88,4.06c1.15,0,2.21-.52,2.89-1.33l.99.84c-.92,1.08-2.29,1.75-3.88,1.75-2.92,0-5.25-2.4-5.25-5.33Z" style="fill:#fff;"/><path d="M358.6,334.3c0-2.22,1.67-3.67,3.66-3.67s3.67,1.46,3.67,3.67-1.68,3.69-3.67,3.69-3.66-1.47-3.66-3.69ZM364.63,334.3c0-1.44-1.08-2.44-2.37-2.44s-2.34,1-2.34,2.44,1.06,2.46,2.34,2.46,2.37-1,2.37-2.46Z" style="fill:#fff;"/><path d="M374.19,333.76v4.05h-1.31v-3.97c0-1.17-.72-1.92-1.69-1.92s-2.15.58-2.15,2.1v3.79h-1.3v-7h1.3v1.07c.42-.86,1.56-1.25,2.33-1.25,1.74,0,2.83,1.17,2.82,3.13Z" style="fill:#fff;"/><path d="M375.89,334.3c0-2.22,1.66-3.67,3.66-3.67s3.67,1.46,3.67,3.67-1.68,3.69-3.67,3.69-3.66-1.47-3.66-3.69ZM381.92,334.3c0-1.44-1.08-2.44-2.37-2.44s-2.34,1-2.34,2.44,1.07,2.46,2.34,2.46,2.37-1,2.37-2.46Z" style="fill:#fff;"/><path d="M384.48,335.76h1.21c.01.6.54,1.09,1.39,1.09s1.41-.43,1.41-1c0-.52-.41-.79-.96-.92l-.96-.22c-1.17-.32-1.84-.88-1.84-2.01s.99-2.07,2.4-2.07c1.19,0,2.42.63,2.42,2.04h-1.26c-.01-.54-.57-.9-1.12-.9-.67,0-1.12.44-1.12.98,0,.48.45.73.9.84l1.03.25c1.46.36,1.83,1.23,1.83,2.03,0,1.3-1.26,2.13-2.71,2.13-1.26,0-2.55-.79-2.61-2.24Z" style="fill:#fff;"/><path d="M391.07,334.3c0-2.22,1.75-3.67,3.76-3.67,1.09,0,2.05.44,2.67,1.11l-.83.85c-.43-.45-1.06-.73-1.8-.73-1.38,0-2.49,1-2.49,2.44s1.11,2.46,2.49,2.46c.74,0,1.37-.29,1.8-.74l.83.86c-.62.69-1.58,1.11-2.67,1.11-2.01,0-3.76-1.47-3.76-3.69Z" style="fill:#fff;"/><path d="M405.56,334.87h-5.7c.19,1.25,1.09,1.89,2.29,1.89.85,0,1.63-.39,2.04-1.09l1.12.45c-.6,1.21-1.86,1.88-3.21,1.88-2,0-3.6-1.49-3.6-3.71s1.61-3.66,3.6-3.66,3.48,1.44,3.48,3.66c0,.19-.01.39-.03.58ZM404.28,333.75c-.17-1.2-1.02-1.89-2.17-1.89s-2.03.63-2.24,1.89h4.41Z" style="fill:#fff;"/><path d="M413.82,333.76v4.05h-1.31v-3.97c0-1.17-.72-1.92-1.69-1.92s-2.15.58-2.15,2.1v3.79h-1.3v-7h1.3v1.07c.42-.86,1.56-1.25,2.33-1.25,1.74,0,2.83,1.17,2.82,3.13Z" style="fill:#fff;"/><path d="M421.61,330.81v1.08l-4.32,4.7h4.32v1.23h-6.15v-1.08l4.25-4.69h-4.02v-1.23h5.92Z" style="fill:#fff;"/><path d="M428.85,330.81h1.31v7h-1.31v-1.25c-.46.84-1.44,1.43-2.56,1.43-1.83,0-3.43-1.54-3.43-3.69s1.51-3.67,3.49-3.67c1.05,0,2.04.45,2.5,1.28v-1.1ZM428.85,334.3c0-1.44-1.21-2.44-2.38-2.44-1.27,0-2.29,1.12-2.29,2.44s1.02,2.46,2.31,2.46,2.37-1.04,2.37-2.46Z" style="fill:#fff;"/><path d="M441.77,327h1.3v10.81h-1.3v-1.09c-.46.79-1.48,1.28-2.49,1.28-1.92,0-3.51-1.49-3.51-3.69s1.58-3.67,3.5-3.67c1.05,0,2.04.45,2.5,1.28v-4.91ZM441.77,334.29c0-1.52-1.23-2.43-2.38-2.43-1.28,0-2.29,1.02-2.29,2.43s1.02,2.47,2.29,2.47,2.38-.97,2.38-2.47Z" style="fill:#fff;"/><path d="M445.08,328.23c0-.5.42-.87.92-.87s.93.38.93.87-.42.87-.93.87-.92-.38-.92-.87ZM445.35,337.81v-7h1.3v7h-1.3Z" style="fill:#fff;"/><path d="M463.74,333.76v4.05h-1.31v-3.97c0-1.17-.64-1.95-1.66-1.95-1.25-.01-1.89.86-1.89,2.42v3.51h-1.3v-3.97c0-1.18-.64-1.95-1.58-1.95-.99,0-1.98.65-1.98,2.13v3.79h-1.3v-7h1.3v1.08c.34-.76,1.26-1.26,2.25-1.26s1.9.54,2.31,1.5c.65-1.26,1.74-1.5,2.45-1.5,1.75,0,2.71,1.17,2.71,3.13Z" style="fill:#fff;"/><path d="M472.5,334.87h-5.7c.2,1.25,1.09,1.89,2.29,1.89.86,0,1.63-.39,2.04-1.09l1.12.45c-.6,1.21-1.86,1.88-3.21,1.88-2,0-3.6-1.49-3.6-3.71s1.6-3.66,3.6-3.66,3.48,1.44,3.48,3.66c0,.19-.02.39-.03.58ZM471.23,333.75c-.17-1.2-1.02-1.89-2.17-1.89s-2.02.63-2.23,1.89h4.41Z" style="fill:#fff;"/><path d="M477.57,330.81v1.12h-1.51v5.88h-1.31v-5.88h-1.26v-1.12h1.26v-2.64h1.31v2.64h1.51Z" style="fill:#fff;"/><path d="M478.4,334.3c0-2.22,1.67-3.67,3.66-3.67s3.67,1.46,3.67,3.67-1.68,3.69-3.67,3.69-3.66-1.47-3.66-3.69ZM484.43,334.3c0-1.44-1.08-2.44-2.37-2.44s-2.34,1-2.34,2.44,1.06,2.46,2.34,2.46,2.37-1,2.37-2.46Z" style="fill:#fff;"/><path d="M493.08,327h1.3v10.81h-1.3v-1.09c-.46.79-1.48,1.28-2.49,1.28-1.92,0-3.51-1.49-3.51-3.69s1.58-3.67,3.5-3.67c1.05,0,2.04.45,2.5,1.28v-4.91ZM493.08,334.29c0-1.52-1.23-2.43-2.38-2.43-1.28,0-2.29,1.02-2.29,2.43s1.02,2.47,2.29,2.47,2.38-.97,2.38-2.47Z" style="fill:#fff;"/><path d="M496.4,328.23c0-.5.42-.87.92-.87s.93.38.93.87-.42.87-.93.87-.92-.38-.92-.87ZM496.67,337.81v-7h1.3v7h-1.3Z" style="fill:#fff;"/></g></svg>